{
.appVersion = "3260";
.storedFileType = "public.opentype-font";
.formatVersion = 3;
customParameters = (
{
name = vendorID;
value = "    ";
},
{
name = panose;
value = (
0,
0,
0,
0,
0,
0,
0,
0,
0,
0
);
},
{
name = unicodeRanges;
value = (
0
);
},
{
name = fsType;
value = (
2
);
},
{
name = blueScale;
value = 0.037;
},
{
name = glyphOrder;
value = (
.notdef,
space,
A,
B,
C,
D,
E,
F,
G,
H,
I,
J,
K,
L,
M,
N,
O,
P,
Q,
R,
S,
T,
U,
V,
W,
X,
Y,
Z,
a,
b,
c,
d,
e,
f,
g,
h,
i,
j,
k,
l,
m,
n,
o,
p,
q,
r,
s,
t,
u,
v,
w,
x,
y,
z
);
}
);
date = "2024-10-16 05:02:17 +0000";
familyName = poissons;
fontMaster = (
{
customParameters = (
{
name = typoAscender;
value = 800;
},
{
name = typoDescender;
value = -200;
},
{
name = typoLineGap;
value = 0;
},
{
name = winAscent;
value = 1050;
},
{
name = winDescent;
value = 450;
},
{
name = hheaAscender;
value = 800;
},
{
name = hheaDescender;
value = -200;
},
{
name = strikeoutPosition;
value = 300;
},
{
name = strikeoutSize;
value = 50;
},
{
name = underlinePosition;
value = -150;
}
);
id = m01;
metricValues = (
{
pos = 800;
},
{
over = 16;
pos = 500;
},
{
over = 16;
pos = 400;
},
{
over = -16;
},
{
over = -16;
pos = -200;
},
{
over = -16;
},
{
over = 16;
pos = 600;
}
);
name = Display;
stemValues = (
50,
35,
38
);
}
);
glyphs = (
{
glyphname = A;
layers = (
{
.lastUpdate = 755097640.315;
hints = (
{
horizontal = 1;
place = (-22,70);
type = Stem;
},
{
horizontal = 1;
place = (-137,274);
type = Stem;
},
{
place = (1020,59);
type = Stem;
},
{
place = (577,92);
type = Stem;
},
{
place = (30,1049);
type = Stem;
}
);
layerId = m01;
shapes = (
{
closed = 1;
nodes = (
(992,-8,o),
(985,-1,o),
(985,10,cs),
(985,19,o),
(992,27,o),
(1001,27,cs),
(1012,27,o),
(1020,19,o),
(1020,10,cs),
(1020,-1,o),
(1012,-8,o),
(1001,-8,cs)
);
},
{
closed = 1;
nodes = (
(87,-92,o),
(206,-22,o),
(272,-22,cs),
(312,-22,o),
(350,-33,o),
(387,-48,c),
(375,-58,o),
(360,-69,o),
(350,-78,cs),
(344,-83,o),
(343,-87,o),
(350,-90,c),
(393,-102,o),
(448,-142,o),
(468,-194,cs),
(471,-203,o),
(477,-198,o),
(482,-189,cs),
(497,-161,o),
(509,-136,o),
(523,-108,c),
(554,-119,o),
(586,-129,o),
(621,-134,c),
(603,-149,o),
(577,-155,o),
(577,-172,cs),
(577,-203,o),
(606,-279,o),
(624,-279,cs),
(659,-279,o),
(667,-173,o),
(669,-137,c),
(951,-137,o),
(1079,-37,o),
(1079,-4,cs),
(1079,23,o),
(911,137,o),
(686,137,cs),
(656,137,o),
(626,133,o),
(596,128,c),
(584,168,o),
(552,262,o),
(515,288,cs),
(508,292,o),
(504,283,o),
(504,274,cs),
(504,238,o),
(493,191,o),
(475,167,cs),
(470,160,o),
(470,153,o),
(473,149,cs),
(485,134,o),
(495,119,o),
(504,104,c),
(417,79,o),
(334,48,o),
(266,48,cs),
(185,48,o),
(99,146,o),
(45,146,c),
(45,108,o),
(103,50,o),
(110,21,c),
(103,-3,o),
(30,-59,o),
(30,-92,c)
);
}
);
width = 1109;
}
);
note = A;
unicode = 65;
},
{
glyphname = B;
lastChange = "2024-12-05 13:20:47 +0000";
layers = (
{
.lastUpdate = 755097647.645;
hints = (
{
horizontal = 1;
place = (-37,72);
type = Stem;
},
{
horizontal = 1;
place = (-68,185);
type = Stem;
},
{
horizontal = 1;
place = (-8,21);
target = up;
type = BottomGhost;
},
{
place = (1049,19);
type = Stem;
},
{
place = (1021,18);
type = Stem;
},
{
place = (997,12);
type = Stem;
}
);
layerId = m01;
shapes = (
{
closed = 1;
nodes = (
(954,219,o),
(946,226,o),
(946,235,cs),
(946,243,o),
(954,250,o),
(961,250,cs),
(970,250,o),
(977,243,o),
(977,235,cs),
(977,226,o),
(970,219,o),
(961,219,cs)
);
},
{
closed = 1;
nodes = (
(57,320,o),
(84,221,o),
(121,192,c),
(75,128,o),
(101,73,o),
(68,8,c),
(117,22,o),
(170,163,o),
(235,163,cs),
(270,163,o),
(300,153,o),
(330,140,c),
(303,94,o),
(262,119,o),
(244,83,cs),
(224,41,o),
(239,17,o),
(244,17,cs),
(315,17,o),
(347,92,o),
(408,105,c),
(452,87,o),
(505,71,o),
(579,68,c),
(560,54,o),
(492,69,o),
(476,41,cs),
(456,5,o),
(436,-51,o),
(464,-51,cs),
(568,-51,o),
(610,21,o),
(636,68,c),
(755,77,o),
(890,132,o),
(934,132,cs),
(943,132,o),
(952,133,o),
(961,135,c),
(957,126,o),
(950,122,o),
(943,111,cs),
(932,95,o),
(937,74,o),
(928,57,c),
(932,57,l),
(943,74,o),
(937,93,o),
(946,107,cs),
(954,119,o),
(966,125,o),
(973,138,c),
(981,140,o),
(989,143,o),
(997,147,c),
(995,134,o),
(995,132,o),
(986,119,cs),
(976,102,o),
(965,88,o),
(968,71,c),
(972,71,l),
(970,88,o),
(981,100,o),
(990,114,cs),
(1000,128,o),
(1005,134,o),
(1009,153,c),
(1013,155,o),
(1017,157,o),
(1021,160,c),
(1024,137,o),
(1022,121,o),
(1012,107,c),
(1015,107,l),
(1027,122,o),
(1033,140,o),
(1029,165,c),
(1037,170,o),
(1043,175,o),
(1049,180,c),
(1050,167,o),
(1054,162,o),
(1046,149,cs),
(1035,133,o),
(1030,111,o),
(1035,95,c),
(1039,95,l),
(1035,111,o),
(1041,130,o),
(1050,144,cs),
(1061,160,o),
(1057,169,o),
(1061,191,c),
(1065,197,o),
(1068,202,o),
(1068,206,cs),
(1068,230,o),
(970,317,o),
(741,317,cs),
(709,317,o),
(670,311,o),
(627,303,c),
(590,336,o),
(575,405,o),
(536,431,c),
(533,431,o),
(552,398,o),
(542,406,cs),
(522,425,o),
(502,456,o),
(484,465,cs),
(476,470,o),
(473,461,o),
(473,451,cs),
(473,416,o),
(464,359,o),
(446,336,cs),
(440,329,o),
(440,321,o),
(444,317,c),
(458,298,o),
(477,291,o),
(488,273,c),
(403,253,o),
(319,235,o),
(257,235,cs),
(157,235,o),
(84,378,o),
(30,378,c)
);
}
);
width = 1098;
}
);
note = B;
unicode = 66;
changeCount = 2;
},
{
glyphname = C;
lastChange = "2024-12-05 13:20:49 +0000";
layers = (
{
.lastUpdate = 755097649.41;
hints = (
{
horizontal = 1;
place = (-27,74);
type = Stem;
},
{
horizontal = 1;
place = (-186,108);
type = Stem;
},
{
place = (607,45);
type = Stem;
},
{
place = (315,79);
type = Stem;
},
{
place = (175,35);
type = Stem;
}
);
layerId = m01;
shapes = (
{
closed = 1;
nodes = (
(578,187,o),
(569,195,o),
(569,206,cs),
(569,216,o),
(578,224,o),
(588,224,cs),
(598,224,o),
(607,216,o),
(607,206,cs),
(607,195,o),
(598,187,o),
(588,187,cs)
);
},
{
closed = 1;
nodes = (
(30,129,o),
(42,88,o),
(52,88,cs),
(80,88,o),
(123,173,o),
(140,173,cs),
(177,173,o),
(203,139,o),
(247,107,c),
(244,102,l),
(210,127,l),
(205,123,o),
(200,122,o),
(194,122,cs),
(184,122,o),
(175,124,o),
(175,108,cs),
(175,82,o),
(197,14,o),
(216,14,cs),
(244,14,o),
(258,73,o),
(276,84,c),
(297,74,o),
(321,66,o),
(350,64,c),
(347,59,o),
(343,57,o),
(339,57,cs),
(328,57,o),
(315,64,o),
(315,38,cs),
(315,-8,o),
(352,-52,o),
(377,-52,cs),
(402,-52,o),
(393,31,o),
(387,65,c),
(488,71,o),
(560,136,o),
(576,142,cs),
(596,150,o),
(652,170,o),
(652,196,cs),
(652,227,o),
(570,276,o),
(561,288,cs),
(544,311,o),
(481,383,o),
(424,403,c),
(422,442,o),
(408,527,o),
(374,527,cs),
(348,527,o),
(183,420,o),
(183,350,cs),
(183,334,o),
(210,330,o),
(229,302,c),
(199,272,o),
(172,247,o),
(151,247,cs),
(132,247,o),
(84,321,o),
(54,321,cs),
(20,321,o),
(44,224,o),
(44,214,cs),
(44,194,o),
(30,182,o),
(30,156,cs)
);
}
);
width = 682;
}
);
note = C;
unicode = 67;
changeCount = 2;
},
{
glyphname = D;
layers = (
{
.lastUpdate = 755097640.315;
hints = (
{
horizontal = 1;
place = (-13,55);
type = Stem;
},
{
place = (819,65);
type = Stem;
},
{
place = (30,854);
type = Stem;
}
);
layerId = m01;
shapes = (
{
closed = 1;
nodes = (
(791,3,o),
(784,10,o),
(784,20,cs),
(784,30,o),
(791,37,o),
(801,37,cs),
(811,37,o),
(819,30,o),
(819,20,cs),
(819,10,o),
(811,3,o),
(801,3,cs)
);
},
{
closed = 1;
nodes = (
(113,-125,o),
(148,-13,o),
(188,-13,cs),
(214,-13,o),
(242,-29,o),
(274,-51,c),
(268,-60,o),
(260,-67,o),
(257,-70,cs),
(254,-74,o),
(254,-76,o),
(257,-78,cs),
(262,-82,o),
(274,-87,o),
(293,-104,cs),
(310,-119,o),
(331,-144,o),
(334,-148,cs),
(336,-152,o),
(342,-152,o),
(347,-148,cs),
(353,-143,o),
(370,-132,o),
(385,-121,c),
(416,-137,o),
(449,-149,o),
(485,-154,c),
(474,-163,o),
(461,-172,o),
(461,-182,cs),
(461,-190,o),
(471,-191,o),
(478,-191,cs),
(499,-191,o),
(513,-174,o),
(523,-157,c),
(727,-156,o),
(884,-38,o),
(884,0,cs),
(884,33,o),
(678,149,o),
(557,149,cs),
(546,149,o),
(535,149,o),
(525,148,c),
(507,163,o),
(480,186,o),
(476,190,cs),
(472,194,o),
(466,194,o),
(463,190,cs),
(460,186,o),
(427,156,o),
(409,149,cs),
(380,135,o),
(348,139,o),
(342,135,cs),
(339,133,o),
(338,130,o),
(341,126,cs),
(345,120,o),
(351,112,o),
(357,100,c),
(304,72,o),
(266,42,o),
(213,42,cs),
(138,42,o),
(129,163,o),
(36,149,c),
(59,131,o),
(114,58,o),
(114,17,cs),
(114,-16,o),
(56,-92,o),
(30,-125,c)
);
}
);
width = 914;
}
);
note = D;
unicode = 68;
},
{
glyphname = E;
layers = (
{
.lastUpdate = 755097640.315;
hints = (
{
horizontal = 1;
place = (1,43);
type = Stem;
},
{
horizontal = 1;
place = (-46,16);
type = Stem;
},
{
horizontal = 1;
place = (-60,185);
type = Stem;
},
{
horizontal = 1;
place = (-85,8);
type = Stem;
},
{
place = (1007,10);
type = Stem;
},
{
place = (999,30);
type = Stem;
},
{
place = (814,23);
type = Stem;
},
{
place = (756,35);
type = Stem;
}
);
layerId = m01;
shapes = (
{
closed = 1;
nodes = (
(963,0,o),
(958,6,o),
(958,13,cs),
(958,20,o),
(963,26,o),
(968,26,cs),
(977,26,o),
(983,20,o),
(983,13,cs),
(983,6,o),
(977,0,o),
(968,0,cs)
);
},
{
closed = 1;
nodes = (
(48,192,o),
(121,57,o),
(121,28,cs),
(121,-3,o),
(72,-36,o),
(65,-69,c),
(72,-72,o),
(79,-73,o),
(85,-73,cs),
(137,-73,o),
(187,1,o),
(206,1,cs),
(223,1,o),
(235,-15,o),
(291,-32,c),
(292,-33,l),
(264,-27,l),
(259,-45,o),
(232,-43,o),
(232,-60,cs),
(232,-74,o),
(215,-104,o),
(228,-104,cs),
(237,-104,o),
(262,-87,o),
(301,-42,c),
(308,-48,l),
(322,-44,l),
(328,-54,l),
(340,-46,l),
(346,-54,l),
(365,-48,l),
(381,-51,l),
(379,-52,o),
(377,-52,o),
(375,-53,c),
(369,-64,o),
(349,-57,o),
(340,-74,c),
(339,-81,o),
(353,-83,o),
(366,-100,cs),
(373,-109,o),
(375,-123,o),
(388,-123,c),
(396,-121,o),
(406,-91,o),
(424,-66,c),
(437,-76,l),
(453,-67,l),
(457,-71,o),
(462,-78,o),
(464,-78,cs),
(466,-78,o),
(473,-74,o),
(477,-71,c),
(482,-76,o),
(487,-83,o),
(495,-83,cs),
(500,-83,o),
(506,-76,o),
(511,-74,c),
(516,-78,o),
(526,-86,o),
(529,-86,cs),
(533,-86,o),
(542,-78,o),
(546,-76,c),
(553,-81,o),
(558,-88,o),
(562,-88,cs),
(565,-88,o),
(578,-78,o),
(584,-74,c),
(598,-86,l),
(611,-76,l),
(627,-88,l),
(645,-76,l),
(667,-86,l),
(685,-74,l),
(703,-83,l),
(720,-74,l),
(747,-78,l),
(761,-72,l),
(771,-72,o),
(781,-72,o),
(791,-71,c),
(777,-87,o),
(752,-82,o),
(752,-97,cs),
(752,-104,o),
(756,-119,o),
(756,-128,cs),
(756,-135,o),
(752,-145,o),
(752,-149,cs),
(752,-156,o),
(756,-154,o),
(756,-159,cs),
(756,-171,o),
(758,-185,o),
(763,-185,cs),
(775,-185,o),
(825,-112,o),
(830,-71,c),
(852,-73,o),
(844,-78,o),
(869,-78,cs),
(879,-78,o),
(940,-59,o),
(995,-40,c),
(991,-72,o),
(995,-83,o),
(990,-117,c),
(992,-117,o),
(994,-110,o),
(996,-98,c),
(997,-110,o),
(996,-121,o),
(999,-136,c),
(1001,-119,o),
(1001,-112,o),
(1007,-86,c),
(1008,-98,o),
(1008,-112,o),
(1010,-119,c),
(1010,-119,o),
(1012,-93,o),
(1014,-74,c),
(1014,-96,o),
(1017,-100,o),
(1017,-121,c),
(1019,-119,o),
(1019,-66,o),
(1017,-32,c),
(1053,-19,o),
(1081,-6,o),
(1081,-1,cs),
(1081,10,o),
(1030,12,o),
(1021,19,cs),
(1007,31,o),
(976,64,o),
(894,86,c),
(884,93,o),
(876,100,o),
(858,106,c),
(854,94,l),
(845,106,o),
(836,106,o),
(830,108,c),
(829,101,l),
(812,101,o),
(807,110,o),
(800,115,c),
(796,103,l),
(789,113,o),
(778,120,o),
(772,122,c),
(772,115,o),
(771,110,o),
(767,103,c),
(760,113,o),
(749,124,o),
(743,127,c),
(742,120,o),
(742,113,o),
(740,106,c),
(732,115,o),
(723,124,o),
(712,129,c),
(711,122,o),
(714,117,o),
(711,108,c),
(711,108,o),
(694,129,o),
(683,132,c),
(683,122,o),
(680,115,o),
(676,110,c),
(671,122,o),
(662,132,o),
(649,132,c),
(645,124,o),
(647,110,o),
(640,110,cs),
(631,110,o),
(629,127,o),
(604,132,c),
(600,124,o),
(605,110,o),
(598,110,cs),
(585,110,o),
(580,127,o),
(556,127,c),
(556,122,o),
(556,106,o),
(553,106,cs),
(544,106,o),
(542,120,o),
(515,117,c),
(515,110,o),
(518,96,o),
(515,96,cs),
(504,96,o),
(495,108,o),
(475,108,c),
(475,101,o),
(482,87,o),
(478,87,cs),
(467,87,o),
(451,101,o),
(437,101,c),
(438,92,o),
(440,85,o),
(438,77,c),
(418,73,o),
(399,70,o),
(381,66,c),
(367,92,o),
(325,132,o),
(315,134,c),
(302,103,o),
(266,70,o),
(232,63,c),
(240,59,o),
(250,53,o),
(256,45,c),
(252,44,o),
(248,44,o),
(244,44,cs),
(226,44,o),
(199,54,o),
(197,59,cs),
(186,99,o),
(65,218,o),
(30,212,c)
);
}
);
width = 1111;
}
);
note = E;
unicode = 69;
},
{
glyphname = F;
layers = (
{
.lastUpdate = 755097640.315;
hints = (
{
horizontal = 1;
place = (-29,90);
type = Stem;
},
{
horizontal = 1;
place = (-162,104);
type = Stem;
},
{
horizontal = 1;
place = (-240,468);
type = Stem;
},
{
place = (804,73);
type = Stem;
},
{
place = (552,71);
type = Stem;
},
{
place = (30,847);
type = Stem;
}
);
layerId = m01;
shapes = (
{
closed = 1;
nodes = (
(783,16,o),
(777,24,o),
(777,31,cs),
(777,40,o),
(783,48,o),
(790,48,cs),
(798,48,o),
(804,40,o),
(804,31,cs),
(804,24,o),
(798,16,o),
(790,16,cs)
);
},
{
closed = 1;
nodes = (
(30,84,o),
(43,43,o),
(43,19,cs),
(43,11,o),
(39,-6,o),
(39,-49,cs),
(39,-72,o),
(49,-119,o),
(60,-119,cs),
(106,-119,o),
(166,-35,o),
(187,-29,c),
(232,-31,o),
(263,-43,o),
(293,-58,c),
(275,-63,o),
(253,-60,o),
(253,-96,cs),
(253,-131,o),
(292,-162,o),
(312,-162,cs),
(348,-162,o),
(382,-133,o),
(400,-110,c),
(453,-128,o),
(508,-131,o),
(563,-131,c),
(556,-136,o),
(552,-142,o),
(552,-148,cs),
(550,-184,o),
(580,-240,o),
(586,-240,cs),
(602,-240,o),
(629,-198,o),
(623,-125,c),
(748,-107,o),
(877,-50,o),
(877,3,cs),
(877,43,o),
(723,142,o),
(589,168,c),
(592,211,o),
(575,228,o),
(550,228,cs),
(519,228,o),
(475,201,o),
(439,167,c),
(398,183,o),
(360,228,o),
(316,228,cs),
(289,228,o),
(249,181,o),
(249,134,cs),
(249,95,o),
(288,110,o),
(307,100,c),
(279,83,o),
(246,68,o),
(193,61,c),
(154,82,o),
(141,158,o),
(51,185,cs),
(31,191,o),
(30,144,o),
(30,127,cs)
);
}
);
width = 907;
}
);
note = F;
unicode = 70;
},
{
glyphname = G;
layers = (
{
.lastUpdate = 755097640.315;
hints = (
{
horizontal = 1;
place = (-20,59);
type = Stem;
},
{
horizontal = 1;
place = (-116,257);
type = Stem;
},
{
horizontal = 1;
place = (-203,21);
target = up;
type = BottomGhost;
},
{
place = (856,51);
type = Stem;
}
);
layerId = m01;
shapes = (
{
closed = 1;
nodes = (
(829,-11,o),
(822,-3,o),
(822,7,cs),
(822,16,o),
(829,24,o),
(838,24,cs),
(849,24,o),
(856,16,o),
(856,7,cs),
(856,-3,o),
(849,-11,o),
(838,-11,cs)
);
},
{
closed = 1;
nodes = (
(30,114,o),
(88,40,o),
(88,7,cs),
(88,-19,o),
(31,-65,o),
(31,-143,cs),
(31,-148,o),
(33,-150,o),
(36,-150,cs),
(60,-150,o),
(168,-20,o),
(190,-20,cs),
(237,-22,o),
(271,-28,o),
(296,-36,c),
(291,-40,o),
(283,-46,o),
(276,-50,cs),
(273,-52,o),
(270,-56,o),
(276,-62,cs),
(310,-97,o),
(300,-167,o),
(300,-192,cs),
(300,-200,o),
(302,-203,o),
(305,-203,cs),
(309,-203,o),
(315,-197,o),
(319,-192,c),
(335,-177,o),
(375,-140,o),
(398,-103,c),
(421,-104,o),
(463,-109,o),
(498,-112,c),
(482,-122,o),
(460,-110,o),
(460,-126,cs),
(460,-190,o),
(466,-266,o),
(484,-266,cs),
(517,-266,o),
(546,-116,o),
(546,-116,c),
(611,-116,o),
(907,-110,o),
(907,-2,cs),
(907,46,o),
(684,141,o),
(538,141,cs),
(522,141,o),
(507,139,o),
(493,136,c),
(479,158,o),
(399,273,o),
(380,273,cs),
(373,273,o),
(367,266,o),
(367,254,cs),
(367,225,o),
(348,159,o),
(343,133,cs),
(340,114,o),
(346,108,o),
(357,108,cs),
(371,108,o),
(379,105,o),
(388,93,c),
(342,69,o),
(292,44,o),
(214,39,c),
(174,39,o),
(66,178,o),
(37,178,cs),
(33,178,o),
(30,175,o),
(30,167,cs)
);
}
);
width = 937;
}
);
note = G;
unicode = 71;
},
{
glyphname = H;
layers = (
{
.lastUpdate = 755097640.315;
hints = (
{
horizontal = 1;
place = (70,18);
type = Stem;
},
{
horizontal = 1;
place = (-50,144);
type = Stem;
},
{
horizontal = 1;
place = (-68,147);
type = Stem;
},
{
horizontal = 1;
place = (-244,61);
type = Stem;
},
{
horizontal = 1;
place = (-249,68);
type = Stem;
},
{
horizontal = 1;
place = (-366,60);
type = Stem;
},
{
horizontal = 1;
place = (-3,21);
target = up;
type = BottomGhost;
},
{
place = (963,61);
type = Stem;
},
{
place = (30,108);
type = Stem;
}
);
layerId = m01;
shapes = (
{
closed = 1;
nodes = (
(944,46,o),
(939,51,o),
(939,58,cs),
(939,63,o),
(944,70,o),
(951,70,cs),
(959,70,o),
(963,63,o),
(963,58,cs),
(963,51,o),
(959,46,o),
(951,46,cs)
);
},
{
closed = 1;
nodes = (
(30,-203,o),
(56,-253,o),
(85,-263,c),
(118,-319,o),
(174,-366,o),
(246,-366,cs),
(265,-366,o),
(283,-365,o),
(302,-362,c),
(320,-365,o),
(341,-367,o),
(360,-367,cs),
(381,-367,o),
(401,-364,o),
(414,-359,cs),
(444,-345,o),
(484,-340,o),
(511,-326,cs),
(540,-312,o),
(574,-291,o),
(595,-284,cs),
(617,-277,o),
(657,-274,o),
(682,-267,cs),
(703,-260,o),
(718,-249,o),
(738,-249,cs),
(757,-249,o),
(779,-253,o),
(801,-251,cs),
(826,-249,o),
(837,-244,o),
(856,-246,cs),
(876,-249,o),
(914,-270,o),
(930,-274,cs),
(946,-279,o),
(957,-272,o),
(961,-267,cs),
(964,-263,o),
(963,-253,o),
(955,-244,cs),
(948,-235,o),
(925,-218,o),
(909,-207,cs),
(892,-195,o),
(853,-197,o),
(831,-190,cs),
(816,-185,o),
(779,-181,o),
(749,-181,cs),
(737,-181,o),
(726,-182,o),
(718,-183,cs),
(689,-188,o),
(664,-200,o),
(644,-207,cs),
(624,-214,o),
(603,-214,o),
(586,-218,cs),
(570,-223,o),
(556,-232,o),
(538,-239,cs),
(520,-246,o),
(511,-246,o),
(484,-253,cs),
(457,-260,o),
(435,-274,o),
(412,-281,cs),
(388,-288,o),
(370,-286,o),
(342,-291,cs),
(320,-294,o),
(302,-300,o),
(284,-306,c),
(258,-305,o),
(237,-300,o),
(219,-294,c),
(200,-272,o),
(184,-249,o),
(172,-242,cs),
(153,-230,o),
(138,-176,o),
(138,-153,cs),
(138,-129,o),
(147,-108,o),
(162,-101,cs),
(174,-97,o),
(181,-68,o),
(214,-68,cs),
(239,-68,o),
(244,-75,o),
(271,-75,cs),
(298,-75,o),
(298,-64,o),
(324,-64,cs),
(349,-64,o),
(361,-85,o),
(379,-85,cs),
(397,-85,o),
(415,-78,o),
(426,-78,cs),
(437,-78,o),
(437,-87,o),
(462,-87,cs),
(476,-87,o),
(496,-78,o),
(517,-68,c),
(532,-68,ls),
(685,-68,o),
(765,-29,o),
(819,-29,cs),
(838,-29,o),
(835,-33,o),
(862,-33,cs),
(891,-33,o),
(943,-5,o),
(972,-3,cs),
(988,-3,o),
(1000,6,o),
(1006,23,cs),
(1008,27,o),
(1024,32,o),
(1024,49,cs),
(1024,67,o),
(1009,84,o),
(972,84,cs),
(939,84,o),
(921,88,o),
(878,88,cs),
(810,88,o),
(726,48,o),
(597,37,c),
(581,57,o),
(560,79,o),
(543,79,cs),
(518,79,o),
(505,74,o),
(484,74,cs),
(462,74,o),
(437,93,o),
(385,93,cs),
(336,93,o),
(324,109,o),
(286,109,cs),
(212,109,o),
(183,86,o),
(158,86,cs),
(131,86,o),
(102,49,o),
(81,32,cs),
(70,23,o),
(66,-1,o),
(59,-19,cs),
(48,-47,o),
(30,-80,o),
(30,-104,cs),
(30,-129,o),
(34,-136,o),
(34,-148,cs),
(34,-160,o),
(30,-167,o),
(30,-178,cs)
);
}
);
width = 1054;
}
);
note = H;
unicode = 72;
},
{
glyphname = I;
layers = (
{
.lastUpdate = 755097640.315;
hints = (
{
horizontal = 1;
place = (-15,54);
type = Stem;
},
{
horizontal = 1;
place = (-15,20);
type = Stem;
},
{
horizontal = 1;
place = (-211,21);
target = up;
type = BottomGhost;
},
{
place = (637,33);
type = Stem;
},
{
place = (464,25);
type = Stem;
}
);
layerId = m01;
shapes = (
{
closed = 1;
nodes = (
(619,5,o),
(614,10,o),
(614,17,cs),
(614,23,o),
(619,28,o),
(625,28,cs),
(632,28,o),
(637,23,o),
(637,17,cs),
(637,10,o),
(632,5,o),
(625,5,cs)
);
},
{
closed = 1;
nodes = (
(28,133,o),
(108,25,o),
(108,10,cs),
(108,2,o),
(44,-103,o),
(47,-107,c),
(61,-107,o),
(177,-15,o),
(182,-15,cs),
(206,-16,o),
(225,-22,o),
(240,-30,c),
(228,-35,o),
(209,-32,o),
(209,-37,cs),
(209,-43,o),
(238,-53,o),
(258,-90,cs),
(280,-133,o),
(276,-163,o),
(281,-164,c),
(290,-164,o),
(329,-142,o),
(358,-111,c),
(377,-119,o),
(401,-123,o),
(431,-123,cs),
(438,-123,o),
(446,-122,o),
(454,-121,c),
(443,-142,o),
(428,-152,o),
(428,-156,cs),
(428,-158,o),
(438,-170,o),
(451,-193,cs),
(462,-213,o),
(470,-236,o),
(472,-236,cs),
(473,-236,o),
(476,-226,o),
(478,-211,c),
(485,-222,o),
(488,-231,o),
(490,-231,c),
(493,-230,o),
(494,-163,o),
(484,-115,c),
(567,-94,o),
(670,-34,o),
(670,8,cs),
(670,30,o),
(607,69,o),
(586,82,cs),
(550,105,o),
(519,142,o),
(442,142,cs),
(432,142,o),
(423,141,o),
(414,140,c),
(386,179,o),
(353,248,o),
(347,248,cs),
(341,248,o),
(340,212,o),
(330,172,cs),
(324,146,o),
(308,136,o),
(308,130,cs),
(308,126,o),
(324,119,o),
(335,108,c),
(288,80,o),
(243,45,o),
(184,39,c),
(173,49,o),
(40,149,o),
(31,138,cs)
);
}
);
width = 700;
}
);
note = I;
unicode = 73;
},
{
glyphname = J;
layers = (
{
.lastUpdate = 755097640.315;
hints = (
{
horizontal = 1;
place = (52,41);
type = Stem;
},
{
horizontal = 1;
place = (-48,68);
type = Stem;
},
{
horizontal = 1;
place = (-83,200);
type = Stem;
},
{
horizontal = 1;
place = (-92,206);
type = Stem;
},
{
place = (793,23);
type = Stem;
},
{
place = (600,23);
type = Stem;
},
{
place = (587,22);
type = Stem;
}
);
layerId = m01;
shapes = (
{
closed = 1;
nodes = (
(919,32,o),
(914,36,o),
(914,43,cs),
(914,48,o),
(919,52,o),
(924,52,cs),
(934,52,o),
(939,48,o),
(939,43,cs),
(939,36,o),
(934,32,o),
(924,32,cs)
);
},
{
closed = 1;
nodes = (
(37,88,o),
(82,15,o),
(82,-19,cs),
(82,-63,o),
(50,-129,o),
(57,-171,c),
(84,-171,o),
(155,-60,o),
(215,-48,c),
(257,-55,o),
(283,-69,o),
(307,-80,c),
(292,-92,o),
(264,-105,o),
(264,-126,cs),
(264,-150,o),
(309,-164,o),
(326,-164,cs),
(339,-164,o),
(382,-133,o),
(423,-92,c),
(484,-90,o),
(543,-85,o),
(587,-84,c),
(576,-122,o),
(552,-136,o),
(552,-152,cs),
(552,-162,o),
(547,-181,o),
(554,-181,cs),
(578,-181,o),
(606,-141,o),
(609,-84,c),
(625,-85,o),
(624,-93,o),
(710,-93,cs),
(741,-93,o),
(770,-86,o),
(794,-78,c),
(777,-112,o),
(780,-143,o),
(805,-143,cs),
(838,-143,o),
(836,-108,o),
(849,-56,c),
(863,-50,o),
(874,-46,o),
(883,-46,cs),
(921,-46,o),
(1064,20,o),
(1064,32,cs),
(1064,67,o),
(959,74,o),
(948,81,cs),
(943,85,o),
(931,93,o),
(915,93,cs),
(911,93,o),
(906,93,o),
(901,91,cs),
(895,88,o),
(888,98,o),
(875,100,cs),
(865,103,o),
(852,103,o),
(845,103,cs),
(836,103,o),
(823,114,o),
(781,114,cs),
(552,114,o),
(536,100,o),
(407,100,cs),
(397,100,o),
(389,100,o),
(380,99,c),
(357,128,o),
(305,169,o),
(291,169,cs),
(266,169,o),
(224,107,o),
(224,81,cs),
(224,75,o),
(242,69,o),
(257,61,c),
(228,49,o),
(196,37,o),
(153,32,c),
(137,43,o),
(74,115,o),
(41,115,cs),
(37,115,o),
(33,113,o),
(30,110,c)
);
}
);
width = 1094;
}
);
note = J;
unicode = 74;
},
{
glyphname = K;
layers = (
{
.lastUpdate = 755097640.315;
hints = (
{
horizontal = 1;
place = (-18,68);
type = Stem;
},
{
horizontal = 1;
place = (-92,248);
type = Stem;
},
{
horizontal = 1;
place = (-99,240);
type = Stem;
},
{
horizontal = 1;
place = (-201,21);
target = up;
type = BottomGhost;
},
{
place = (734,53);
type = Stem;
},
{
place = (30,757);
type = Stem;
}
);
layerId = m01;
shapes = (
{
closed = 1;
nodes = (
(710,-4,o),
(703,3,o),
(703,12,cs),
(703,20,o),
(710,27,o),
(718,27,cs),
(727,27,o),
(734,20,o),
(734,12,cs),
(734,3,o),
(727,-4,o),
(718,-4,cs)
);
},
{
closed = 1;
nodes = (
(30,-116,o),
(33,-120,o),
(39,-120,cs),
(67,-120,o),
(153,-25,o),
(180,-18,c),
(270,-25,o),
(269,-40,o),
(275,-45,c),
(258,-53,o),
(237,-60,o),
(237,-73,cs),
(237,-85,o),
(244,-97,o),
(249,-111,cs),
(255,-123,o),
(249,-159,o),
(268,-159,cs),
(288,-159,o),
(311,-109,o),
(331,-78,c),
(357,-78,o),
(392,-83,o),
(430,-87,c),
(415,-97,o),
(401,-109,o),
(401,-126,cs),
(401,-161,o),
(433,-225,o),
(442,-225,cs),
(455,-225,o),
(473,-144,o),
(482,-91,c),
(492,-92,o),
(503,-92,o),
(513,-92,cs),
(641,-92,o),
(787,-42,o),
(787,-13,cs),
(787,15,o),
(635,156,o),
(506,156,cs),
(499,156,o),
(492,156,o),
(485,155,c),
(465,194,o),
(438,235,o),
(419,239,c),
(406,239,o),
(375,196,o),
(343,173,cs),
(315,152,o),
(249,133,o),
(249,111,cs),
(249,95,o),
(275,89,o),
(287,78,c),
(260,65,o),
(234,54,o),
(211,50,c),
(140,62,o),
(91,164,o),
(46,163,cs),
(38,163,o),
(31,154,o),
(31,145,cs),
(31,109,o),
(94,47,o),
(94,16,cs),
(94,-2,o),
(30,-43,o),
(30,-107,cs)
);
}
);
width = 817;
}
);
note = K;
unicode = 75;
},
{
glyphname = L;
layers = (
{
.lastUpdate = 755097640.315;
hints = (
{
horizontal = 1;
place = (-12,53);
type = Stem;
},
{
horizontal = 1;
place = (-88,61);
type = Stem;
},
{
horizontal = 1;
place = (-105,92);
type = Stem;
},
{
horizontal = 1;
place = (-136,238);
type = Stem;
},
{
horizontal = 1;
place = (-212,21);
target = up;
type = BottomGhost;
},
{
place = (820,65);
type = Stem;
}
);
layerId = m01;
shapes = (
{
closed = 1;
nodes = (
(794,-13,o),
(786,-6,o),
(786,5,cs),
(786,14,o),
(794,21,o),
(803,21,cs),
(813,21,o),
(821,14,o),
(821,5,cs),
(821,-6,o),
(813,-13,o),
(803,-13,cs)
);
},
{
closed = 1;
nodes = (
(-1,202,o),
(68,75,o),
(66,36,cs),
(65,-13,o),
(30,-110,o),
(60,-110,cs),
(86,-110,o),
(110,-19,o),
(135,-12,c),
(149,-16,o),
(188,-47,o),
(253,-77,c),
(254,-109,o),
(233,-119,o),
(233,-142,cs),
(233,-163,o),
(257,-190,o),
(288,-190,cs),
(312,-190,o),
(315,-138,o),
(326,-105,c),
(368,-119,o),
(417,-129,o),
(472,-134,c),
(450,-147,o),
(405,-155,o),
(405,-177,cs),
(405,-198,o),
(422,-227,o),
(432,-227,cs),
(448,-227,o),
(487,-179,o),
(514,-136,c),
(528,-136,ls),
(606,-136,o),
(705,-105,o),
(746,-105,cs),
(813,-105,o),
(885,-33,o),
(885,-4,cs),
(885,27,o),
(698,102,o),
(560,102,cs),
(533,102,o),
(506,100,o),
(480,96,c),
(468,164,o),
(419,250,o),
(398,250,cs),
(390,250,o),
(375,223,o),
(362,200,cs),
(345,174,o),
(330,151,o),
(330,141,cs),
(330,127,o),
(349,95,o),
(363,73,c),
(308,61,o),
(260,48,o),
(222,44,c),
(119,53,o),
(89,202,o),
(48,202,cs)
);
}
);
width = 915;
}
);
note = L;
unicode = 76;
},
{
glyphname = M;
layers = (
{
.lastUpdate = 755097640.315;
hints = (
{
horizontal = 1;
place = (-32,59);
type = Stem;
},
{
horizontal = 1;
place = (-67,65);
type = Stem;
},
{
horizontal = 1;
place = (-99,211);
type = Stem;
},
{
place = (464,63);
type = Stem;
},
{
place = (447,128);
type = Stem;
}
);
layerId = m01;
shapes = (
{
closed = 1;
nodes = (
(782,-2,o),
(775,4,o),
(775,13,cs),
(775,19,o),
(782,27,o),
(790,27,cs),
(797,27,o),
(805,19,o),
(805,13,cs),
(805,4,o),
(797,-2,o),
(790,-2,cs)
);
},
{
closed = 1;
nodes = (
(23,87,o),
(103,6,o),
(103,-8,cs),
(103,-18,o),
(35,-99,o),
(43,-108,cs),
(50,-118,o),
(190,-32,o),
(196,-32,cs),
(261,-29,o),
(308,-34,o),
(347,-42,c),
(324,-70,o),
(313,-68,o),
(310,-73,cs),
(307,-79,o),
(314,-99,o),
(319,-112,cs),
(325,-132,o),
(323,-155,o),
(329,-155,cs),
(340,-155,o),
(381,-104,o),
(389,-53,c),
(425,-64,o),
(455,-76,o),
(490,-85,c),
(474,-105,o),
(466,-103,o),
(464,-114,c),
(458,-202,o),
(478,-196,o),
(481,-208,cs),
(484,-220,o),
(488,-222,o),
(493,-222,cs),
(503,-222,o),
(524,-145,o),
(527,-93,c),
(550,-97,o),
(576,-99,o),
(607,-99,cs),
(643,-99,o),
(713,-74,o),
(742,-58,c),
(757,-62,o),
(773,-67,o),
(789,-67,cs),
(796,-67,o),
(802,-66,o),
(809,-64,cs),
(818,-60,o),
(827,-57,o),
(835,-53,c),
(843,-57,o),
(838,-73,o),
(841,-73,cs),
(844,-73,o),
(850,-58,o),
(852,-43,c),
(869,-32,o),
(877,-22,o),
(872,-11,cs),
(865,7,o),
(859,3,o),
(845,10,cs),
(815,28,o),
(803,48,o),
(775,61,cs),
(712,90,o),
(622,112,o),
(577,112,cs),
(563,112,o),
(550,111,o),
(538,110,c),
(535,164,o),
(522,241,o),
(511,241,cs),
(499,241,o),
(496,213,o),
(469,188,cs),
(445,165,o),
(418,155,o),
(418,143,cs),
(418,135,o),
(436,109,o),
(449,85,c),
(387,60,o),
(327,27,o),
(208,27,cs),
(190,27,o),
(73,97,o),
(39,97,cs),
(35,97,o),
(33,96,o),
(31,94,cs)
);
}
);
width = 904;
}
);
note = M;
unicode = 77;
},
{
glyphname = N;
layers = (
{
.lastUpdate = 755097640.315;
hints = (
{
horizontal = 1;
place = (36,34);
type = Stem;
},
{
horizontal = 1;
place = (-10,123);
type = Stem;
},
{
horizontal = 1;
place = (-12,141);
type = Stem;
},
{
horizontal = 1;
place = (-17,20);
type = Stem;
},
{
horizontal = 1;
place = (-58,141);
type = Stem;
},
{
horizontal = 1;
place = (-256,91);
type = Stem;
},
{
horizontal = 1;
place = (-264,79);
type = Stem;
},
{
horizontal = 1;
place = (-4,21);
target = up;
type = BottomGhost;
},
{
place = (1198,16);
type = Stem;
},
{
place = (1170,17);
type = Stem;
},
{
place = (1144,17);
type = Stem;
},
{
place = (1086,14);
type = Stem;
},
{
place = (1031,22);
type = Stem;
},
{
place = (1002,28);
type = Stem;
},
{
place = (30,92);
type = Stem;
}
);
layerId = m01;
shapes = (
{
closed = 1;
nodes = (
(976,3,o),
(969,11,o),
(969,20,cs),
(969,28,o),
(976,36,o),
(986,36,cs),
(994,36,o),
(1002,28,o),
(1002,20,cs),
(1002,11,o),
(994,3,o),
(986,3,cs)
);
},
{
closed = 1;
nodes = (
(30,-120,o),
(46,-144,o),
(60,-154,c),
(66,-208,o),
(93,-264,o),
(171,-264,cs),
(259,-264,o),
(459,-189,o),
(475,-176,cs),
(505,-153,o),
(540,-107,o),
(540,-94,cs),
(540,-86,o),
(510,-73,o),
(487,-73,cs),
(447,-73,o),
(407,-175,o),
(230,-185,cs),
(193,-188,o),
(122,-188,o),
(122,-163,cs),
(122,-41,o),
(463,-10,o),
(510,-10,cs),
(579,-10,o),
(786,-58,o),
(843,-58,cs),
(912,-58,o),
(930,-20,o),
(1017,-24,cs),
(1019,-24,o),
(1021,-24,o),
(1025,-23,c),
(1027,-27,o),
(1031,-30,o),
(1031,-30,c),
(1032,-30,o),
(1031,-27,o),
(1030,-23,c),
(1033,-26,o),
(1037,-30,o),
(1038,-30,cs),
(1039,-30,o),
(1038,-26,o),
(1036,-22,c),
(1037,-21,l),
(1040,-24,o),
(1043,-27,o),
(1044,-27,c),
(1044,-27,o),
(1044,-26,o),
(1044,-25,c),
(1047,-27,l),
(1048,-27,o),
(1047,-24,o),
(1045,-20,c),
(1049,-22,o),
(1052,-25,o),
(1053,-25,cs),
(1054,-25,o),
(1054,-22,o),
(1053,-19,c),
(1056,-22,o),
(1059,-25,o),
(1060,-25,cs),
(1061,-25,o),
(1059,-21,o),
(1057,-16,c),
(1058,-16,l),
(1061,-20,o),
(1064,-23,o),
(1065,-23,cs),
(1066,-23,o),
(1065,-19,o),
(1063,-15,c),
(1067,-18,o),
(1070,-21,o),
(1071,-21,cs),
(1072,-21,o),
(1071,-18,o),
(1069,-14,c),
(1072,-17,o),
(1075,-20,o),
(1076,-20,cs),
(1077,-20,o),
(1076,-16,o),
(1074,-11,c),
(1078,-14,o),
(1081,-17,o),
(1082,-17,cs),
(1083,-17,o),
(1082,-13,o),
(1081,-9,c),
(1083,-12,o),
(1086,-15,o),
(1087,-15,cs),
(1088,-15,o),
(1087,-11,o),
(1085,-6,c),
(1086,-6,l),
(1088,-9,o),
(1091,-12,o),
(1092,-12,cs),
(1093,-12,o),
(1092,-8,o),
(1090,-4,c),
(1096,0,o),
(1100,4,o),
(1100,9,cs),
(1100,32,o),
(1035,70,o),
(949,70,cs),
(912,70,o),
(885,83,o),
(810,83,cs),
(687,83,o),
(651,113,o),
(459,113,cs),
(432,113,o),
(403,111,o),
(373,106,c),
(364,110,o),
(346,112,o),
(324,112,cs),
(305,112,o),
(282,110,o),
(259,107,cs),
(228,103,o),
(178,63,o),
(152,35,c),
(133,42,o),
(30,-57,o),
(30,-94,cs)
);
}
);
width = 1130;
}
);
note = N;
unicode = 78;
},
{
glyphname = O;
layers = (
{
.lastUpdate = 755097640.315;
hints = (
{
horizontal = 1;
place = (58,35);
type = Stem;
},
{
horizontal = 1;
place = (-33,72);
type = Stem;
},
{
horizontal = 1;
place = (-43,82);
type = Stem;
},
{
horizontal = 1;
place = (-98,234);
type = Stem;
},
{
horizontal = 1;
place = (-103,240);
type = Stem;
},
{
place = (1188,19);
type = Stem;
},
{
place = (1182,39);
type = Stem;
},
{
place = (575,89);
type = Stem;
}
);
layerId = m01;
shapes = (
{
closed = 1;
nodes = (
(1127,33,o),
(1121,37,o),
(1121,45,cs),
(1121,52,o),
(1127,58,o),
(1133,58,cs),
(1142,58,o),
(1148,52,o),
(1148,45,cs),
(1148,37,o),
(1142,33,o),
(1133,33,cs)
);
},
{
closed = 1;
nodes = (
(22,96,o),
(43,8,o),
(43,-11,cs),
(43,-26,o),
(37,-117,o),
(47,-131,cs),
(58,-144,o),
(251,-43,o),
(260,-43,cs),
(307,-43,o),
(346,-45,o),
(380,-49,c),
(359,-77,o),
(339,-90,o),
(339,-101,cs),
(339,-117,o),
(354,-163,o),
(379,-163,cs),
(389,-163,o),
(416,-116,o),
(433,-56,c),
(492,-66,o),
(537,-79,o),
(595,-89,c),
(584,-105,o),
(575,-115,o),
(575,-125,cs),
(575,-177,o),
(589,-188,o),
(589,-204,cs),
(589,-223,o),
(596,-248,o),
(612,-248,cs),
(626,-248,o),
(656,-185,o),
(664,-98,c),
(695,-101,o),
(731,-103,o),
(774,-103,cs),
(894,-103,o),
(1077,-58,o),
(1188,0,c),
(1198,-24,o),
(1193,-51,o),
(1196,-51,c),
(1211,-41,o),
(1205,-5,o),
(1207,3,cs),
(1209,9,o),
(1219,9,o),
(1221,9,cs),
(1226,9,o),
(1221,-27,o),
(1226,-27,cs),
(1232,-27,o),
(1238,11,o),
(1238,17,cs),
(1238,24,o),
(1236,33,o),
(1234,42,cs),
(1230,60,o),
(1234,74,o),
(1230,74,cs),
(1228,74,o),
(1223,69,o),
(1223,63,c),
(1217,66,o),
(1217,58,o),
(1186,74,c),
(1186,80,o),
(1181,88,o),
(1179,88,cs),
(1169,88,o),
(1171,85,o),
(1167,80,c),
(1156,88,o),
(1123,93,o),
(1108,93,cs),
(1072,93,o),
(1047,137,o),
(772,137,cs),
(739,137,o),
(713,133,o),
(688,127,c),
(670,191,o),
(633,257,o),
(621,257,cs),
(604,257,o),
(604,222,o),
(598,216,cs),
(575,197,o),
(549,148,o),
(549,131,cs),
(549,123,o),
(563,108,o),
(577,91,c),
(509,68,o),
(415,44,o),
(239,39,cs),
(188,39,o),
(64,112,o),
(35,101,cs)
);
}
);
width = 1268;
}
);
note = O;
unicode = 79;
},
{
glyphname = P;
layers = (
{
.lastUpdate = 755097640.316;
hints = (
{
horizontal = 1;
place = (-30,57);
type = Stem;
},
{
place = (753,48);
type = Stem;
},
{
place = (744,48);
type = Stem;
},
{
place = (397,249);
type = Stem;
},
{
place = (30,762);
type = Stem;
}
);
layerId = m01;
shapes = (
{
closed = 1;
nodes = (
(725,-2,o),
(720,3,o),
(720,10,cs),
(720,16,o),
(725,22,o),
(732,22,cs),
(738,22,o),
(744,16,o),
(744,10,cs),
(744,3,o),
(738,-2,o),
(732,-2,cs)
);
},
{
closed = 1;
nodes = (
(146,-60,o),
(163,-30,o),
(210,-30,cs),
(251,-30,o),
(274,-47,o),
(306,-66,c),
(293,-71,o),
(277,-69,o),
(273,-80,cs),
(266,-96,o),
(266,-167,o),
(299,-167,cs),
(311,-167,o),
(342,-149,o),
(378,-99,c),
(412,-110,o),
(455,-117,o),
(516,-117,cs),
(534,-117,o),
(551,-117,o),
(566,-116,c),
(525,-147,o),
(524,-153,o),
(524,-181,cs),
(524,-208,o),
(540,-236,o),
(553,-236,cs),
(579,-236,o),
(581,-175,o),
(599,-113,c),
(688,-104,o),
(708,-81,o),
(721,-79,c),
(761,-68,o),
(792,-54,o),
(792,-8,cs),
(792,15,o),
(752,39,o),
(702,75,cs),
(686,88,o),
(669,116,o),
(628,132,c),
(657,217,o),
(610,257,o),
(540,257,cs),
(476,257,o),
(394,197,o),
(376,162,cs),
(371,151,o),
(384,131,o),
(397,109,c),
(392,106,o),
(388,104,o),
(383,102,c),
(358,135,o),
(345,165,o),
(327,165,cs),
(303,165,o),
(289,139,o),
(237,84,cs),
(229,76,o),
(254,61,o),
(272,38,c),
(256,31,o),
(240,27,o),
(222,27,cs),
(165,27,o),
(146,86,o),
(40,122,cs),
(6,132,o),
(73,48,o),
(73,-7,cs),
(73,-33,o),
(12,-136,o),
(36,-122,cs)
);
}
);
width = 822;
}
);
note = P;
unicode = 80;
},
{
glyphname = Q;
layers = (
{
.lastUpdate = 755097640.316;
hints = (
{
horizontal = 1;
place = (188,19);
type = Stem;
},
{
horizontal = 1;
place = (146,16);
type = Stem;
},
{
horizontal = 1;
place = (123,14);
type = Stem;
},
{
horizontal = 1;
place = (123,7);
type = Stem;
},
{
horizontal = 1;
place = (44,89);
type = Stem;
},
{
horizontal = 1;
place = (-61,118);
type = Stem;
},
{
horizontal = 1;
place = (-87,9);
type = Stem;
},
{
horizontal = 1;
place = (-99,8);
type = Stem;
},
{
horizontal = 1;
place = (-104,13);
type = Stem;
},
{
horizontal = 1;
place = (-110,10);
type = Stem;
},
{
horizontal = 1;
place = (-127,10);
type = Stem;
},
{
horizontal = 1;
place = (-144,12);
type = Stem;
},
{
place = (643,14);
type = Stem;
},
{
place = (602,59);
type = Stem;
},
{
place = (590,8);
type = Stem;
},
{
place = (549,52);
type = Stem;
},
{
place = (476,23);
type = Stem;
},
{
place = (450,19);
type = Stem;
}
);
layerId = m01;
shapes = (
{
closed = 1;
nodes = (
(476,122,o),
(469,127,o),
(469,134,cs),
(469,141,o),
(476,146,o),
(483,146,cs),
(490,146,o),
(496,141,o),
(496,134,cs),
(496,127,o),
(490,122,o),
(483,122,cs)
);
},
{
closed = 1;
nodes = (
(38,-121,o),
(72,-86,o),
(127,-60,c),
(134,-61,l),
(113,-84,o),
(98,-98,o),
(104,-102,cs),
(105,-103,l),
(111,-103,o),
(128,-86,o),
(152,-64,c),
(155,-64,l),
(148,-77,o),
(145,-85,o),
(149,-86,cs),
(150,-86,o),
(150,-87,o),
(151,-87,cs),
(155,-87,o),
(160,-78,o),
(170,-65,c),
(177,-65,o),
(183,-65,o),
(188,-64,c),
(200,-94,o),
(226,-116,o),
(286,-116,cs),
(301,-116,o),
(335,-111,o),
(373,-101,c),
(388,-111,o),
(405,-116,o),
(411,-131,cs),
(412,-133,o),
(415,-135,o),
(418,-134,cs),
(420,-133,o),
(422,-130,o),
(421,-127,cs),
(415,-112,o),
(401,-105,o),
(388,-99,c),
(415,-103,o),
(448,-99,o),
(454,-115,cs),
(455,-117,o),
(458,-119,o),
(461,-118,cs),
(463,-117,o),
(465,-114,o),
(464,-111,cs),
(457,-93,o),
(432,-92,o),
(409,-91,c),
(410,-90,l),
(420,-89,o),
(430,-87,o),
(439,-87,cs),
(449,-87,o),
(458,-89,o),
(465,-96,cs),
(467,-98,o),
(470,-97,o),
(472,-95,cs),
(474,-93,o),
(473,-90,o),
(471,-88,cs),
(464,-81,o),
(454,-78,o),
(444,-78,c),
(482,-62,o),
(514,-42,o),
(523,-18,c),
(534,-27,o),
(551,-33,o),
(554,-40,cs),
(557,-51,o),
(553,-84,o),
(567,-114,c),
(553,-119,o),
(543,-98,o),
(520,-100,cs),
(517,-100,o),
(515,-103,o),
(515,-105,cs),
(515,-108,o),
(518,-110,o),
(520,-110,cs),
(532,-110,o),
(541,-117,o),
(550,-121,c),
(548,-124,l),
(536,-126,o),
(522,-117,o),
(507,-117,cs),
(499,-117,o),
(491,-120,o),
(483,-128,cs),
(481,-130,o),
(482,-133,o),
(484,-135,cs),
(486,-137,o),
(489,-136,o),
(491,-134,cs),
(496,-129,o),
(501,-127,o),
(507,-127,cs),
(519,-127,o),
(531,-134,o),
(544,-134,c),
(523,-138,o),
(500,-141,o),
(493,-166,c),
(492,-168,o),
(494,-171,o),
(497,-172,cs),
(499,-173,o),
(502,-171,o),
(503,-168,cs),
(509,-143,o),
(540,-147,o),
(564,-140,c),
(549,-149,o),
(529,-152,o),
(521,-173,cs),
(520,-176,o),
(522,-179,o),
(524,-180,cs),
(527,-181,o),
(530,-179,o),
(531,-177,cs),
(539,-153,o),
(572,-158,o),
(586,-133,c),
(595,-127,o),
(601,-114,o),
(601,-98,cs),
(601,-42,o),
(582,-4,o),
(536,24,c),
(549,34,o),
(563,44,o),
(568,44,cs),
(598,44,o),
(593,74,o),
(591,93,c),
(599,103,o),
(600,118,o),
(595,123,c),
(599,127,o),
(593,137,o),
(582,137,cs),
(575,137,o),
(566,133,o),
(550,133,cs),
(535,133,o),
(525,134,o),
(515,140,c),
(510,152,o),
(495,162,o),
(481,162,cs),
(464,162,o),
(451,148,o),
(450,134,c),
(439,142,o),
(423,149,o),
(412,149,cs),
(394,149,o),
(375,139,o),
(367,128,c),
(361,129,o),
(356,129,o),
(350,129,cs),
(259,129,o),
(196,101,o),
(182,32,c),
(123,31,o),
(75,8,o),
(75,-20,cs),
(75,-29,o),
(80,-37,o),
(89,-44,c),
(71,-55,o),
(59,-61,o),
(63,-65,c),
(65,-69,o),
(74,-65,o),
(88,-59,c),
(55,-89,o),
(26,-106,o),
(31,-113,cs)
);
},
{
closed = 1;
nodes = (
(577,119,o),
(588,124,o),
(590,120,cs),
(593,113,o),
(591,104,o),
(586,99,cs),
(583,97,o),
(577,100,o),
(577,110,cs)
);
}
);
width = 631;
}
);
note = Q;
unicode = 81;
},
{
glyphname = R;
layers = (
{
.lastUpdate = 755097640.316;
hints = (
{
horizontal = 1;
place = (-27,66);
type = Stem;
},
{
horizontal = 1;
place = (-99,213);
type = Stem;
},
{
horizontal = 1;
place = (-124,76);
type = Stem;
},
{
place = (841,59);
type = Stem;
}
);
layerId = m01;
shapes = (
{
closed = 1;
nodes = (
(822,4,o),
(818,9,o),
(818,16,cs),
(818,22,o),
(822,27,o),
(828,27,cs),
(836,27,o),
(840,22,o),
(840,16,cs),
(840,9,o),
(836,4,o),
(828,4,cs)
);
},
{
closed = 1;
nodes = (
(111,-73,o),
(164,-27,o),
(186,-27,cs),
(205,-29,o),
(225,-36,o),
(247,-45,c),
(236,-58,o),
(227,-51,o),
(225,-55,cs),
(224,-59,o),
(239,-73,o),
(239,-94,cs),
(239,-127,o),
(233,-151,o),
(239,-151,cs),
(259,-151,o),
(324,-107,o),
(350,-84,c),
(377,-93,o),
(408,-101,o),
(444,-107,c),
(433,-118,o),
(405,-113,o),
(402,-123,cs),
(393,-154,o),
(393,-190,o),
(401,-190,cs),
(417,-190,o),
(472,-144,o),
(492,-113,c),
(519,-116,o),
(547,-117,o),
(579,-117,cs),
(702,-117,o),
(900,-86,o),
(900,-18,cs),
(900,47,o),
(714,119,o),
(531,121,c),
(517,137,o),
(484,173,o),
(446,200,cs),
(440,204,o),
(438,202,o),
(438,195,cs),
(438,165,o),
(396,134,o),
(386,128,cs),
(383,126,o),
(383,122,o),
(386,121,c),
(394,115,o),
(410,113,o),
(423,102,c),
(366,84,o),
(306,57,o),
(255,45,c),
(290,58,l),
(266,62,o),
(246,89,o),
(233,89,cs),
(224,89,o),
(218,80,o),
(218,72,cs),
(218,62,o),
(240,62,o),
(251,44,c),
(235,41,o),
(221,39,o),
(207,39,cs),
(156,39,o),
(120,99,o),
(35,113,c),
(35,82,o),
(50,51,o),
(50,18,cs),
(50,-17,o),
(30,-41,o),
(30,-76,c)
);
}
);
width = 930;
}
);
note = R;
unicode = 82;
},
{
glyphname = S;
lastChange = "2024-12-05 13:21:49 +0000";
layers = (
{
.lastUpdate = 755097709.314;
hints = (
{
horizontal = 1;
place = (84,11);
type = Stem;
},
{
horizontal = 1;
place = (10,39);
type = Stem;
},
{
horizontal = 1;
place = (-33,154);
type = Stem;
},
{
horizontal = 1;
place = (-39,186);
type = Stem;
},
{
horizontal = 1;
place = (-80,128);
type = Stem;
},
{
horizontal = 1;
place = (-148,11);
type = Stem;
},
{
horizontal = 1;
place = (-160,218);
type = Stem;
},
{
horizontal = 1;
place = (-160,91);
type = Stem;
},
{
horizontal = 1;
place = (-173,7);
type = Stem;
},
{
horizontal = 1;
place = (-192,110);
type = Stem;
},
{
horizontal = 1;
place = (-8,21);
target = up;
type = BottomGhost;
},
{
horizontal = 1;
place = (-14,21);
target = up;
type = BottomGhost;
},
{
place = (855,12);
type = Stem;
},
{
place = (781,42);
type = Stem;
},
{
place = (774,9);
type = Stem;
},
{
place = (743,42);
type = Stem;
},
{
place = (712,35);
type = Stem;
},
{
place = (564,75);
type = Stem;
},
{
place = (550,39);
type = Stem;
}
);
layerId = m01;
shapes = (
{
closed = 1;
nodes = (
(716,182,o),
(712,187,o),
(712,192,cs),
(712,198,o),
(716,202,o),
(722,202,cs),
(727,202,o),
(732,198,o),
(732,192,cs),
(732,187,o),
(727,182,o),
(722,182,cs)
);
},
{
closed = 1;
nodes = (
(39,93,o),
(56,52,o),
(92,38,c),
(106,20,o),
(127,8,o),
(153,8,cs),
(232,8,o),
(330,43,o),
(330,103,cs),
(330,114,o),
(320,129,o),
(295,129,cs),
(274,129,o),
(253,121,o),
(231,113,c),
(210,120,o),
(180,118,o),
(160,118,cs),
(146,118,o),
(125,123,o),
(111,129,c),
(135,154,o),
(173,161,o),
(212,161,cs),
(273,161,o),
(335,143,o),
(345,143,cs),
(358,143,o),
(371,151,o),
(381,160,c),
(403,151,l),
(391,146,o),
(380,140,o),
(380,125,cs),
(380,107,o),
(400,99,o),
(411,103,cs),
(424,106,o),
(436,120,o),
(448,132,c),
(473,121,o),
(498,111,o),
(524,104,c),
(523,98,o),
(523,93,o),
(523,87,cs),
(523,74,o),
(530,59,o),
(547,59,cs),
(560,59,o),
(586,78,o),
(599,99,c),
(608,102,o),
(616,105,o),
(627,105,cs),
(641,105,o),
(636,98,o),
(649,98,cs),
(666,98,o),
(689,105,o),
(712,117,c),
(683,48,o),
(657,46,o),
(588,46,cs),
(574,46,o),
(561,45,o),
(550,43,cs),
(522,38,o),
(500,31,o),
(472,31,cs),
(463,31,o),
(453,32,o),
(442,34,c),
(442,30,l),
(454,28,o),
(464,27,o),
(475,27,cs),
(496,27,o),
(517,31,o),
(547,38,cs),
(557,40,o),
(571,40,o),
(586,40,cs),
(670,40,o),
(687,46,o),
(720,121,c),
(726,124,o),
(731,127,o),
(737,131,c),
(740,123,o),
(743,111,o),
(743,99,cs),
(743,81,o),
(704,49,o),
(706,25,c),
(709,25,l),
(708,49,o),
(747,78,o),
(747,101,cs),
(747,111,o),
(744,124,o),
(741,134,c),
(751,141,o),
(761,148,o),
(769,156,c),
(773,148,o),
(781,127,o),
(781,110,cs),
(781,92,o),
(762,69,o),
(765,45,c),
(768,45,l),
(767,69,o),
(785,89,o),
(785,112,cs),
(785,126,o),
(777,150,o),
(773,161,c),
(781,169,o),
(787,178,o),
(791,186,c),
(804,175,o),
(818,148,o),
(818,127,cs),
(818,105,o),
(811,74,o),
(824,50,c),
(827,50,l),
(816,74,o),
(823,109,o),
(823,129,cs),
(823,153,o),
(805,182,o),
(794,192,c),
(796,198,o),
(797,203,o),
(797,209,cs),
(797,221,o),
(791,233,o),
(777,242,c),
(766,260,o),
(760,284,o),
(729,305,cs),
(692,329,o),
(659,318,o),
(625,334,cs),
(580,356,o),
(512,378,o),
(474,374,c),
(474,371,l),
(520,374,o),
(593,343,o),
(629,327,cs),
(666,311,o),
(688,322,o),
(723,302,cs),
(750,286,o),
(759,263,o),
(767,248,c),
(751,255,o),
(727,260,o),
(697,260,cs),
(664,260,o),
(641,258,o),
(606,258,cs),
(587,258,o),
(569,261,o),
(551,266,c),
(541,290,o),
(522,327,o),
(508,340,c),
(503,343,o),
(502,338,o),
(505,332,cs),
(509,323,o),
(513,309,o),
(512,296,cs),
(511,290,o),
(516,282,o),
(520,276,c),
(448,301,o),
(372,347,o),
(265,347,cs),
(195,347,o),
(79,323,o),
(47,261,cs),
(25,220,o),
(30,181,o),
(34,138,cs)
);
}
);
width = 857;
}
);
note = S;
unicode = 83;
changeCount = 2;
},
{
glyphname = T;
layers = (
{
.lastUpdate = 755097640.316;
hints = (
{
horizontal = 1;
place = (-51,87);
type = Stem;
},
{
horizontal = 1;
place = (-109,249);
type = Stem;
},
{
horizontal = 1;
place = (-112,252);
type = Stem;
},
{
horizontal = 1;
place = (-127,217);
type = Stem;
},
{
horizontal = 1;
place = (-237,489);
type = Stem;
},
{
place = (652,61);
type = Stem;
},
{
place = (30,683);
type = Stem;
}
);
layerId = m01;
shapes = (
{
closed = 1;
nodes = (
(635,7,o),
(630,12,o),
(630,18,cs),
(630,24,o),
(635,29,o),
(641,29,cs),
(647,29,o),
(652,24,o),
(652,18,cs),
(652,12,o),
(647,7,o),
(641,7,cs)
);
},
{
closed = 1;
nodes = (
(30,21,o),
(49,-3,o),
(49,-29,cs),
(49,-66,o),
(37,-72,o),
(37,-102,cs),
(37,-121,o),
(50,-127,o),
(61,-127,cs),
(99,-127,o),
(149,-69,o),
(193,-51,c),
(217,-55,o),
(233,-60,o),
(246,-65,c),
(231,-84,o),
(212,-72,o),
(212,-130,cs),
(211,-158,o),
(220,-188,o),
(233,-188,cs),
(256,-190,o),
(278,-160,o),
(301,-119,cs),
(305,-112,o),
(312,-104,o),
(322,-99,c),
(337,-104,o),
(357,-107,o),
(385,-109,c),
(368,-120,o),
(354,-125,o),
(353,-147,cs),
(353,-191,o),
(387,-237,o),
(401,-237,cs),
(415,-237,o),
(429,-203,o),
(434,-177,cs),
(438,-156,o),
(445,-129,o),
(453,-109,c),
(563,-104,o),
(713,-62,o),
(713,-4,cs),
(713,30,o),
(561,140,o),
(452,140,cs),
(411,140,o),
(411,251,o),
(368,252,cs),
(347,252,o),
(308,225,o),
(308,145,cs),
(307,124,o),
(328,112,o),
(342,99,c),
(297,71,o),
(251,40,o),
(204,36,c),
(128,44,o),
(119,90,o),
(56,90,cs),
(35,90,o),
(30,68,o),
(30,54,cs)
);
}
);
width = 743;
}
);
note = T;
unicode = 84;
},
{
glyphname = U;
layers = (
{
.lastUpdate = 755097640.316;
hints = (
{
horizontal = 1;
place = (36,23);
type = Stem;
},
{
horizontal = 1;
place = (-36,50);
type = Stem;
},
{
horizontal = 1;
place = (-64,66);
type = Stem;
},
{
place = (831,70);
type = Stem;
},
{
place = (30,871);
type = Stem;
}
);
layerId = m01;
shapes = (
{
closed = 1;
nodes = (
(808,2,o),
(802,8,o),
(802,17,cs),
(802,24,o),
(808,30,o),
(816,30,cs),
(825,30,o),
(831,24,o),
(831,17,cs),
(831,8,o),
(825,2,o),
(816,2,cs)
);
},
{
closed = 1;
nodes = (
(102,-101,o),
(171,-48,o),
(193,-36,c),
(230,-40,o),
(257,-50,o),
(286,-61,c),
(276,-66,o),
(262,-61,o),
(253,-72,cs),
(226,-107,o),
(229,-134,o),
(241,-134,cs),
(266,-134,o),
(323,-100,o),
(343,-81,c),
(380,-92,o),
(427,-102,o),
(498,-105,c),
(491,-110,o),
(483,-114,o),
(478,-120,cs),
(471,-130,o),
(469,-150,o),
(472,-179,c),
(474,-187,o),
(475,-198,o),
(484,-191,cs),
(519,-161,o),
(546,-126,o),
(559,-107,c),
(561,-107,ls),
(741,-107,o),
(814,-64,o),
(856,-64,cs),
(897,-64,o),
(901,-27,o),
(901,-5,cs),
(901,39,o),
(782,97,o),
(599,98,c),
(582,118,o),
(534,173,o),
(492,203,cs),
(486,207,o),
(483,199,o),
(483,192,cs),
(483,162,o),
(475,147,o),
(460,127,cs),
(456,121,o),
(454,115,o),
(459,112,cs),
(465,108,o),
(479,100,o),
(491,91,c),
(410,81,o),
(346,59,o),
(295,42,c),
(276,48,o),
(259,59,o),
(244,59,cs),
(228,59,o),
(222,36,o),
(235,36,cs),
(246,36,o),
(255,33,o),
(263,31,c),
(234,21,o),
(209,15,o),
(187,14,c),
(153,16,o),
(106,76,o),
(30,76,c),
(30,45,o),
(69,30,o),
(69,-13,cs),
(69,-58,o),
(30,-74,o),
(30,-109,c)
);
}
);
width = 931;
}
);
note = U;
unicode = 85;
},
{
glyphname = V;
layers = (
{
.lastUpdate = 755097640.316;
hints = (
{
horizontal = 1;
place = (-36,71);
type = Stem;
},
{
horizontal = 1;
place = (-84,181);
type = Stem;
},
{
horizontal = 1;
place = (-88,185);
type = Stem;
},
{
horizontal = 1;
place = (-93,181);
type = Stem;
},
{
horizontal = 1;
place = (0,21);
target = up;
type = BottomGhost;
},
{
place = (846,54);
type = Stem;
}
);
layerId = m01;
shapes = (
{
closed = 1;
nodes = (
(824,-1,o),
(818,5,o),
(818,14,cs),
(818,21,o),
(824,27,o),
(831,27,cs),
(840,27,o),
(846,21,o),
(846,14,cs),
(846,5,o),
(840,-1,o),
(831,-1,cs)
);
},
{
closed = 1;
nodes = (
(138,-93,o),
(201,-51,o),
(246,-36,c),
(295,-42,o),
(340,-50,o),
(384,-59,c),
(363,-88,o),
(341,-91,o),
(339,-101,cs),
(338,-115,o),
(372,-132,o),
(383,-127,c),
(394,-119,o),
(414,-88,o),
(436,-69,c),
(464,-75,o),
(491,-80,o),
(519,-83,c),
(509,-87,o),
(499,-87,o),
(495,-99,cs),
(489,-121,o),
(461,-144,o),
(477,-144,cs),
(508,-144,o),
(542,-109,o),
(561,-87,c),
(573,-88,o),
(584,-88,o),
(596,-88,cs),
(677,-88,o),
(900,-72,o),
(900,-13,cs),
(900,38,o),
(777,97,o),
(599,97,cs),
(576,97,o),
(554,95,o),
(531,93,c),
(519,109,o),
(486,148,o),
(452,172,cs),
(447,176,o),
(434,170,o),
(429,158,cs),
(426,150,o),
(419,146,o),
(419,139,cs),
(419,131,o),
(423,129,o),
(425,121,cs),
(426,113,o),
(423,104,o),
(428,102,cs),
(433,100,o),
(454,91,o),
(464,80,c),
(406,63,o),
(362,39,o),
(242,35,c),
(174,41,o),
(120,88,o),
(38,88,cs),
(20,88,o),
(90,2,o),
(110,0,c),
(92,-15,o),
(17,-93,o),
(32,-93,cs)
);
}
);
width = 930;
}
);
note = V;
unicode = 86;
},
{
glyphname = W;
layers = (
{
.lastUpdate = 755097640.316;
hints = (
{
horizontal = 1;
place = (166,50);
type = Stem;
},
{
horizontal = 1;
place = (139,54);
type = Stem;
},
{
horizontal = 1;
place = (-56,19);
type = Stem;
},
{
horizontal = 1;
place = (-91,18);
type = Stem;
},
{
horizontal = 1;
place = (-101,20);
type = Stem;
},
{
horizontal = 1;
place = (-123,18);
type = Stem;
},
{
horizontal = 1;
place = (-139,19);
type = Stem;
},
{
horizontal = 1;
place = (-174,20);
type = Stem;
},
{
horizontal = 1;
place = (-199,21);
target = up;
type = BottomGhost;
},
{
horizontal = 1;
place = (-204,21);
target = up;
type = BottomGhost;
},
{
place = (587,93);
type = Stem;
},
{
place = (551,13);
type = Stem;
},
{
place = (544,86);
type = Stem;
},
{
place = (511,12);
type = Stem;
}
);
layerId = m01;
shapes = (
{
closed = 1;
nodes = (
(504,123,o),
(493,133,o),
(493,145,cs),
(493,156,o),
(504,166,o),
(519,166,cs),
(534,166,o),
(544,156,o),
(544,145,cs),
(544,133,o),
(534,123,o),
(519,123,cs)
);
},
{
closed = 1;
nodes = (
(52,-120,o),
(151,-97,o),
(219,-155,cs),
(236,-170,o),
(244,-185,o),
(248,-188,cs),
(251,-191,o),
(259,-190,o),
(258,-183,cs),
(256,-175,o),
(245,-163,o),
(255,-154,cs),
(257,-152,o),
(260,-151,o),
(264,-151,cs),
(275,-151,o),
(293,-161,o),
(307,-170,cs),
(324,-180,o),
(344,-199,o),
(348,-199,cs),
(353,-198,o),
(356,-194,o),
(352,-186,c),
(319,-151,o),
(307,-151,o),
(319,-128,cs),
(323,-120,o),
(311,-115,o),
(301,-109,cs),
(280,-96,o),
(272,-80,o),
(288,-73,c),
(302,-75,o),
(315,-77,o),
(325,-77,cs),
(342,-77,o),
(360,-66,o),
(378,-55,c),
(379,-83,o),
(398,-144,o),
(432,-144,cs),
(442,-144,o),
(468,-132,o),
(473,-123,c),
(491,-122,o),
(508,-130,o),
(511,-139,c),
(514,-140,o),
(515,-142,o),
(518,-143,c),
(523,-143,o),
(525,-133,o),
(523,-128,cs),
(518,-117,o),
(499,-107,o),
(477,-105,c),
(494,-92,o),
(518,-88,o),
(525,-91,c),
(530,-91,o),
(534,-88,o),
(534,-79,c),
(533,-77,o),
(531,-74,o),
(529,-73,c),
(520,-71,o),
(491,-69,o),
(470,-87,c),
(480,-66,o),
(499,-56,o),
(505,-56,cs),
(509,-56,o),
(511,-51,o),
(511,-46,cs),
(511,-41,o),
(509,-37,o),
(505,-37,cs),
(498,-37,o),
(477,-47,o),
(462,-68,c),
(463,-59,o),
(467,-53,o),
(470,-51,cs),
(473,-48,o),
(474,-46,o),
(474,-42,cs),
(474,-36,o),
(468,-35,o),
(464,-37,c),
(459,-42,o),
(452,-53,o),
(448,-68,c),
(439,-55,o),
(428,-43,o),
(419,-31,c),
(451,-15,o),
(478,-5,o),
(488,5,cs),
(518,35,o),
(498,40,o),
(515,61,cs),
(529,77,o),
(630,100,o),
(630,143,cs),
(630,160,o),
(587,183,o),
(548,194,c),
(543,205,o),
(526,216,o),
(511,216,cs),
(497,216,o),
(480,204,o),
(476,193,c),
(437,181,o),
(391,159,o),
(358,158,cs),
(314,157,o),
(307,175,o),
(244,175,cs),
(199,175,o),
(172,148,o),
(154,125,c),
(139,129,o),
(117,133,o),
(101,133,cs),
(85,133,o),
(47,123,o),
(47,102,cs),
(47,96,o),
(50,80,o),
(75,71,c),
(64,64,o),
(55,54,o),
(55,39,cs),
(55,33,o),
(59,27,o),
(67,19,c),
(45,18,o),
(25,11,o),
(31,-18,cs)
);
}
);
width = 660;
}
);
note = W;
unicode = 87;
},
{
glyphname = X;
layers = (
{
.lastUpdate = 755097640.316;
hints = (
{
horizontal = 1;
place = (500,-20);
target = down;
type = TopGhost;
},
{
horizontal = 1;
place = (189,138);
type = Stem;
},
{
horizontal = 1;
place = (160,146);
type = Stem;
},
{
horizontal = 1;
place = (130,133);
type = Stem;
},
{
horizontal = 1;
place = (-65,133);
type = Stem;
},
{
horizontal = 1;
place = (-10,21);
target = up;
type = BottomGhost;
},
{
place = (898,44);
type = Stem;
},
{
place = (850,30);
type = Stem;
},
{
place = (536,44);
type = Stem;
},
{
place = (30,89);
type = Stem;
},
{
place = (30,83);
type = Stem;
}
);
layerId = m01;
shapes = (
{
closed = 1;
nodes = (
(836,-33,o),
(832,-27,o),
(832,-22,cs),
(832,-16,o),
(836,-10,o),
(841,-10,cs),
(845,-10,o),
(850,-16,o),
(850,-22,cs),
(850,-27,o),
(845,-33,o),
(841,-33,cs)
);
},
{
closed = 1;
nodes = (
(30,64,o),
(34,43,o),
(42,24,c),
(56,-58,o),
(103,-90,o),
(124,-90,cs),
(135,-90,o),
(140,-86,o),
(144,-81,c),
(194,-108,o),
(249,-121,o),
(287,-121,cs),
(466,-121,o),
(619,-65,o),
(664,-65,cs),
(718,-65,o),
(725,-70,o),
(751,-70,cs),
(782,-70,o),
(880,-61,o),
(880,-35,cs),
(880,-14,o),
(850,-2,o),
(826,21,cs),
(784,60,o),
(734,68,o),
(659,68,cs),
(530,68,o),
(511,34,o),
(350,26,c),
(337,55,o),
(277,64,o),
(218,64,cs),
(180,64,o),
(146,78,o),
(113,99,c),
(113,148,o),
(141,189,o),
(194,189,cs),
(314,189,o),
(367,130,o),
(454,130,cs),
(541,130,o),
(580,185,o),
(580,263,cs),
(580,347,o),
(525,416,o),
(463,450,c),
(452,464,o),
(444,476,o),
(440,480,cs),
(427,494,o),
(404,500,o),
(390,500,cs),
(384,500,o),
(379,499,o),
(377,497,cs),
(367,489,o),
(380,442,o),
(398,419,cs),
(406,409,o),
(444,379,o),
(479,355,c),
(507,324,o),
(533,294,o),
(536,271,c),
(526,266,o),
(511,263,o),
(484,263,cs),
(358,263,o),
(344,327,o),
(212,327,cs),
(109,327,o),
(72,278,o),
(61,226,c),
(41,193,o),
(30,147,o),
(30,86,cs)
);
}
);
width = 910;
}
);
note = X;
unicode = 88;
},
{
glyphname = Y;
layers = (
{
.lastUpdate = 755097640.316;
hints = (
{
horizontal = 1;
place = (-38,64);
type = Stem;
},
{
horizontal = 1;
place = (-199,21);
target = up;
type = BottomGhost;
},
{
place = (853,54);
type = Stem;
},
{
place = (30,877);
type = Stem;
}
);
layerId = m01;
shapes = (
{
closed = 1;
nodes = (
(832,-17,o),
(826,-11,o),
(826,-3,cs),
(826,4,o),
(832,10,o),
(840,10,cs),
(847,10,o),
(853,4,o),
(853,-3,cs),
(853,-11,o),
(847,-17,o),
(840,-17,cs)
);
},
{
closed = 1;
nodes = (
(30,20,o),
(52,4,o),
(52,-15,cs),
(52,-31,o),
(31,-41,o),
(31,-86,cs),
(31,-101,o),
(46,-140,o),
(73,-130,cs),
(139,-109,o),
(175,-54,o),
(187,-38,c),
(245,-42,o),
(282,-48,o),
(311,-56,c),
(296,-64,o),
(280,-61,o),
(274,-70,cs),
(267,-82,o),
(274,-140,o),
(312,-140,cs),
(320,-140,o),
(361,-121,o),
(403,-84,c),
(441,-94,o),
(493,-101,o),
(601,-101,cs),
(611,-101,l),
(593,-117,o),
(580,-128,o),
(580,-148,cs),
(580,-179,o),
(597,-199,o),
(612,-199,cs),
(649,-199,o),
(663,-127,o),
(674,-100,c),
(799,-95,o),
(844,-77,o),
(859,-72,cs),
(883,-64,o),
(907,-52,o),
(907,-15,cs),
(907,10,o),
(867,24,o),
(819,45,cs),
(803,52,o),
(759,84,o),
(689,103,c),
(684,150,o),
(659,231,o),
(599,231,cs),
(543,231,o),
(470,161,o),
(447,117,cs),
(445,113,o),
(446,113,o),
(453,106,c),
(446,105,o),
(440,103,o),
(433,101,c),
(406,149,o),
(368,176,o),
(348,176,cs),
(321,176,o),
(279,135,o),
(228,61,cs),
(222,53,o),
(242,49,o),
(263,38,c),
(240,31,o),
(214,27,o),
(183,26,c),
(174,29,o),
(129,76,o),
(60,90,cs),
(39,94,o),
(30,63,o),
(30,51,cs)
);
}
);
width = 937;
}
);
note = Y;
unicode = 89;
},
{
glyphname = Z;
lastChange = "2024-12-05 13:20:51 +0000";
layers = (
{
.lastUpdate = 755097651.163;
hints = (
{
horizontal = 1;
place = (-30,67);
type = Stem;
},
{
place = (30,822);
type = Stem;
}
);
layerId = m01;
shapes = (
{
closed = 1;
nodes = (
(744,240,o),
(737,247,o),
(737,257,cs),
(737,265,o),
(744,272,o),
(754,272,cs),
(763,272,o),
(770,265,o),
(770,257,cs),
(770,247,o),
(763,240,o),
(754,240,cs)
);
},
{
closed = 1;
nodes = (
(18,349,o),
(95,262,o),
(95,184,cs),
(95,109,o),
(25,38,o),
(40,38,cs),
(85,38,o),
(186,151,o),
(231,170,c),
(245,165,o),
(260,155,o),
(277,144,c),
(253,118,o),
(245,127,o),
(245,118,cs),
(245,89,o),
(347,26,o),
(379,26,cs),
(408,26,o),
(411,51,o),
(422,79,c),
(470,68,o),
(519,66,o),
(568,66,c),
(560,50,o),
(542,53,o),
(539,46,cs),
(519,0,o),
(519,-47,o),
(525,-47,cs),
(538,-47,o),
(592,17,o),
(615,68,c),
(724,74,o),
(738,99,o),
(753,104,cs),
(798,118,o),
(847,129,o),
(847,173,cs),
(847,202,o),
(837,208,o),
(828,222,cs),
(809,257,o),
(777,317,o),
(732,337,cs),
(714,345,o),
(692,380,o),
(631,392,c),
(644,456,o),
(605,513,o),
(562,513,cs),
(485,513,o),
(371,408,o),
(236,268,cs),
(229,260,o),
(260,267,o),
(283,252,c),
(266,243,o),
(248,237,o),
(228,237,cs),
(187,238,o),
(64,349,o),
(32,349,cs)
);
}
);
width = 877;
}
);
note = Z;
unicode = 90;
changeCount = 2;
},
{
glyphname = a;
layers = (
{
.lastUpdate = 755097640.316;
hints = (
{
horizontal = 1;
place = (-22,70);
type = Stem;
},
{
horizontal = 1;
place = (-137,274);
type = Stem;
},
{
place = (1020,59);
type = Stem;
},
{
place = (577,92);
type = Stem;
},
{
place = (30,1049);
type = Stem;
}
);
layerId = m01;
shapes = (
{
closed = 1;
nodes = (
(992,-8,o),
(985,-1,o),
(985,10,cs),
(985,19,o),
(992,27,o),
(1001,27,cs),
(1012,27,o),
(1020,19,o),
(1020,10,cs),
(1020,-1,o),
(1012,-8,o),
(1001,-8,cs)
);
},
{
closed = 1;
nodes = (
(87,-92,o),
(206,-22,o),
(272,-22,cs),
(312,-22,o),
(350,-33,o),
(387,-48,c),
(375,-58,o),
(360,-69,o),
(350,-78,cs),
(344,-83,o),
(343,-87,o),
(350,-90,c),
(393,-102,o),
(448,-142,o),
(468,-194,cs),
(471,-203,o),
(477,-198,o),
(482,-189,cs),
(497,-161,o),
(509,-136,o),
(523,-108,c),
(554,-119,o),
(586,-129,o),
(621,-134,c),
(603,-149,o),
(577,-155,o),
(577,-172,cs),
(577,-203,o),
(606,-279,o),
(624,-279,cs),
(659,-279,o),
(667,-173,o),
(669,-137,c),
(951,-137,o),
(1079,-37,o),
(1079,-4,cs),
(1079,23,o),
(911,137,o),
(686,137,cs),
(656,137,o),
(626,133,o),
(596,128,c),
(584,168,o),
(552,262,o),
(515,288,cs),
(508,292,o),
(504,283,o),
(504,274,cs),
(504,238,o),
(493,191,o),
(475,167,cs),
(470,160,o),
(470,153,o),
(473,149,cs),
(485,134,o),
(495,119,o),
(504,104,c),
(417,79,o),
(334,48,o),
(266,48,cs),
(185,48,o),
(99,146,o),
(45,146,c),
(45,108,o),
(103,50,o),
(110,21,c),
(103,-3,o),
(30,-59,o),
(30,-92,c)
);
}
);
width = 1109;
}
);
note = a;
unicode = 97;
},
{
glyphname = b;
layers = (
{
.lastUpdate = 755097640.316;
hints = (
{
horizontal = 1;
place = (-37,72);
type = Stem;
},
{
horizontal = 1;
place = (-68,185);
type = Stem;
},
{
horizontal = 1;
place = (-8,21);
target = up;
type = BottomGhost;
},
{
place = (1049,19);
type = Stem;
},
{
place = (1021,18);
type = Stem;
},
{
place = (997,12);
type = Stem;
}
);
layerId = m01;
shapes = (
{
closed = 1;
nodes = (
(954,19,o),
(946,26,o),
(946,35,cs),
(946,43,o),
(954,50,o),
(961,50,cs),
(970,50,o),
(977,43,o),
(977,35,cs),
(977,26,o),
(970,19,o),
(961,19,cs)
);
},
{
closed = 1;
nodes = (
(57,120,o),
(84,21,o),
(121,-8,c),
(75,-72,o),
(101,-127,o),
(68,-192,c),
(117,-178,o),
(170,-37,o),
(235,-37,cs),
(270,-37,o),
(300,-47,o),
(330,-60,c),
(303,-106,o),
(262,-81,o),
(244,-117,cs),
(224,-159,o),
(239,-183,o),
(244,-183,cs),
(315,-183,o),
(347,-108,o),
(408,-95,c),
(452,-113,o),
(505,-129,o),
(579,-132,c),
(560,-146,o),
(492,-131,o),
(476,-159,cs),
(456,-195,o),
(436,-251,o),
(464,-251,cs),
(568,-251,o),
(610,-179,o),
(636,-132,c),
(755,-123,o),
(890,-68,o),
(934,-68,cs),
(943,-68,o),
(952,-67,o),
(961,-65,c),
(957,-74,o),
(950,-78,o),
(943,-89,cs),
(932,-105,o),
(937,-126,o),
(928,-143,c),
(932,-143,l),
(943,-126,o),
(937,-107,o),
(946,-93,cs),
(954,-81,o),
(966,-75,o),
(973,-62,c),
(981,-60,o),
(989,-57,o),
(997,-53,c),
(995,-66,o),
(995,-68,o),
(986,-81,cs),
(976,-98,o),
(965,-112,o),
(968,-129,c),
(972,-129,l),
(970,-112,o),
(981,-100,o),
(990,-86,cs),
(1000,-72,o),
(1005,-66,o),
(1009,-47,c),
(1013,-45,o),
(1017,-43,o),
(1021,-40,c),
(1024,-63,o),
(1022,-79,o),
(1012,-93,c),
(1015,-93,l),
(1027,-78,o),
(1033,-60,o),
(1029,-35,c),
(1037,-30,o),
(1043,-25,o),
(1049,-20,c),
(1050,-33,o),
(1054,-38,o),
(1046,-51,cs),
(1035,-67,o),
(1030,-89,o),
(1035,-105,c),
(1039,-105,l),
(1035,-89,o),
(1041,-70,o),
(1050,-56,cs),
(1061,-40,o),
(1057,-31,o),
(1061,-9,c),
(1065,-3,o),
(1068,2,o),
(1068,6,cs),
(1068,30,o),
(970,117,o),
(741,117,cs),
(709,117,o),
(670,111,o),
(627,103,c),
(590,136,o),
(575,205,o),
(536,231,c),
(533,231,o),
(552,198,o),
(542,206,cs),
(522,225,o),
(502,256,o),
(484,265,cs),
(476,270,o),
(473,261,o),
(473,251,cs),
(473,216,o),
(464,159,o),
(446,136,cs),
(440,129,o),
(440,121,o),
(444,117,c),
(458,98,o),
(477,91,o),
(488,73,c),
(403,53,o),
(319,35,o),
(257,35,cs),
(157,35,o),
(84,178,o),
(30,178,c)
);
}
);
width = 1098;
}
);
note = b;
unicode = 98;
},
{
glyphname = c;
layers = (
{
.lastUpdate = 755097640.316;
hints = (
{
horizontal = 1;
place = (-27,74);
type = Stem;
},
{
horizontal = 1;
place = (-186,108);
type = Stem;
},
{
place = (607,45);
type = Stem;
},
{
place = (315,79);
type = Stem;
},
{
place = (175,35);
type = Stem;
}
);
layerId = m01;
shapes = (
{
closed = 1;
nodes = (
(578,-13,o),
(569,-5,o),
(569,6,cs),
(569,16,o),
(578,24,o),
(588,24,cs),
(598,24,o),
(607,16,o),
(607,6,cs),
(607,-5,o),
(598,-13,o),
(588,-13,cs)
);
},
{
closed = 1;
nodes = (
(30,-71,o),
(42,-112,o),
(52,-112,cs),
(80,-112,o),
(123,-27,o),
(140,-27,cs),
(177,-27,o),
(203,-61,o),
(247,-93,c),
(244,-98,l),
(210,-73,l),
(205,-77,o),
(200,-78,o),
(194,-78,cs),
(184,-78,o),
(175,-76,o),
(175,-92,cs),
(175,-118,o),
(197,-186,o),
(216,-186,cs),
(244,-186,o),
(258,-127,o),
(276,-116,c),
(297,-126,o),
(321,-134,o),
(350,-136,c),
(347,-141,o),
(343,-143,o),
(339,-143,cs),
(328,-143,o),
(315,-136,o),
(315,-162,cs),
(315,-208,o),
(352,-252,o),
(377,-252,cs),
(402,-252,o),
(393,-169,o),
(387,-135,c),
(488,-129,o),
(560,-64,o),
(576,-58,cs),
(596,-50,o),
(652,-30,o),
(652,-4,cs),
(652,27,o),
(570,76,o),
(561,88,cs),
(544,111,o),
(481,183,o),
(424,203,c),
(422,242,o),
(408,327,o),
(374,327,cs),
(348,327,o),
(183,220,o),
(183,150,cs),
(183,134,o),
(210,130,o),
(229,102,c),
(199,72,o),
(172,47,o),
(151,47,cs),
(132,47,o),
(84,121,o),
(54,121,cs),
(20,121,o),
(44,24,o),
(44,14,cs),
(44,-6,o),
(30,-18,o),
(30,-44,cs)
);
}
);
width = 682;
}
);
note = c;
unicode = 99;
},
{
glyphname = d;
layers = (
{
.lastUpdate = 755097640.316;
hints = (
{
horizontal = 1;
place = (-13,55);
type = Stem;
},
{
place = (819,65);
type = Stem;
},
{
place = (30,854);
type = Stem;
}
);
layerId = m01;
shapes = (
{
closed = 1;
nodes = (
(791,3,o),
(784,10,o),
(784,20,cs),
(784,30,o),
(791,37,o),
(801,37,cs),
(811,37,o),
(819,30,o),
(819,20,cs),
(819,10,o),
(811,3,o),
(801,3,cs)
);
},
{
closed = 1;
nodes = (
(113,-125,o),
(148,-13,o),
(188,-13,cs),
(214,-13,o),
(242,-29,o),
(274,-51,c),
(268,-60,o),
(260,-67,o),
(257,-70,cs),
(254,-74,o),
(254,-76,o),
(257,-78,cs),
(262,-82,o),
(274,-87,o),
(293,-104,cs),
(310,-119,o),
(331,-144,o),
(334,-148,cs),
(336,-152,o),
(342,-152,o),
(347,-148,cs),
(353,-143,o),
(370,-132,o),
(385,-121,c),
(416,-137,o),
(449,-149,o),
(485,-154,c),
(474,-163,o),
(461,-172,o),
(461,-182,cs),
(461,-190,o),
(471,-191,o),
(478,-191,cs),
(499,-191,o),
(513,-174,o),
(523,-157,c),
(727,-156,o),
(884,-38,o),
(884,0,cs),
(884,33,o),
(678,149,o),
(557,149,cs),
(546,149,o),
(535,149,o),
(525,148,c),
(507,163,o),
(480,186,o),
(476,190,cs),
(472,194,o),
(466,194,o),
(463,190,cs),
(460,186,o),
(427,156,o),
(409,149,cs),
(380,135,o),
(348,139,o),
(342,135,cs),
(339,133,o),
(338,130,o),
(341,126,cs),
(345,120,o),
(351,112,o),
(357,100,c),
(304,72,o),
(266,42,o),
(213,42,cs),
(138,42,o),
(129,163,o),
(36,149,c),
(59,131,o),
(114,58,o),
(114,17,cs),
(114,-16,o),
(56,-92,o),
(30,-125,c)
);
}
);
width = 914;
}
);
note = d;
unicode = 100;
},
{
glyphname = e;
layers = (
{
.lastUpdate = 755097640.316;
hints = (
{
horizontal = 1;
place = (1,43);
type = Stem;
},
{
horizontal = 1;
place = (-46,16);
type = Stem;
},
{
place = (1007,10);
type = Stem;
},
{
place = (756,35);
type = Stem;
}
);
layerId = m01;
shapes = (
{
closed = 1;
nodes = (
(963,0,o),
(958,6,o),
(958,13,cs),
(958,20,o),
(963,26,o),
(968,26,cs),
(977,26,o),
(983,20,o),
(983,13,cs),
(983,6,o),
(977,0,o),
(968,0,cs)
);
},
{
closed = 1;
nodes = (
(48,192,o),
(121,57,o),
(121,28,cs),
(121,-3,o),
(72,-36,o),
(65,-69,c),
(72,-72,o),
(79,-73,o),
(85,-73,cs),
(137,-73,o),
(187,1,o),
(206,1,cs),
(223,1,o),
(235,-15,o),
(291,-32,c),
(292,-33,l),
(264,-27,l),
(259,-45,o),
(232,-43,o),
(232,-60,cs),
(232,-74,o),
(215,-104,o),
(228,-104,cs),
(237,-104,o),
(262,-87,o),
(301,-42,c),
(308,-48,l),
(322,-44,l),
(328,-54,l),
(340,-46,l),
(346,-54,l),
(365,-48,l),
(381,-51,l),
(379,-52,o),
(377,-52,o),
(375,-53,c),
(369,-64,o),
(349,-57,o),
(340,-74,c),
(339,-81,o),
(353,-83,o),
(366,-100,cs),
(373,-109,o),
(375,-123,o),
(388,-123,c),
(396,-121,o),
(406,-91,o),
(424,-66,c),
(437,-76,l),
(453,-67,l),
(457,-71,o),
(462,-78,o),
(464,-78,cs),
(466,-78,o),
(473,-74,o),
(477,-71,c),
(482,-76,o),
(487,-83,o),
(495,-83,cs),
(500,-83,o),
(506,-76,o),
(511,-74,c),
(516,-78,o),
(526,-86,o),
(529,-86,cs),
(533,-86,o),
(542,-78,o),
(546,-76,c),
(553,-81,o),
(558,-88,o),
(562,-88,cs),
(565,-88,o),
(578,-78,o),
(584,-74,c),
(598,-86,l),
(611,-76,l),
(627,-88,l),
(645,-76,l),
(667,-86,l),
(685,-74,l),
(703,-83,l),
(720,-74,l),
(747,-78,l),
(761,-72,l),
(771,-72,o),
(781,-72,o),
(791,-71,c),
(777,-87,o),
(752,-82,o),
(752,-97,cs),
(752,-104,o),
(756,-119,o),
(756,-128,cs),
(756,-135,o),
(752,-145,o),
(752,-149,cs),
(752,-156,o),
(756,-154,o),
(756,-159,cs),
(756,-171,o),
(758,-185,o),
(763,-185,cs),
(775,-185,o),
(825,-112,o),
(830,-71,c),
(852,-73,o),
(844,-78,o),
(869,-78,cs),
(879,-78,o),
(940,-59,o),
(995,-40,c),
(991,-72,o),
(995,-83,o),
(990,-117,c),
(992,-117,o),
(994,-110,o),
(996,-98,c),
(997,-110,o),
(996,-121,o),
(999,-136,c),
(1001,-119,o),
(1001,-112,o),
(1007,-86,c),
(1008,-98,o),
(1008,-112,o),
(1010,-119,c),
(1010,-119,o),
(1012,-93,o),
(1014,-74,c),
(1014,-96,o),
(1017,-100,o),
(1017,-121,c),
(1019,-119,o),
(1019,-66,o),
(1017,-32,c),
(1053,-19,o),
(1081,-6,o),
(1081,-1,cs),
(1081,10,o),
(1030,12,o),
(1021,19,cs),
(1007,31,o),
(976,64,o),
(894,86,c),
(884,93,o),
(876,100,o),
(858,106,c),
(854,94,l),
(845,106,o),
(836,106,o),
(830,108,c),
(829,101,l),
(812,101,o),
(807,110,o),
(800,115,c),
(796,103,l),
(789,113,o),
(778,120,o),
(772,122,c),
(772,115,o),
(771,110,o),
(767,103,c),
(760,113,o),
(749,124,o),
(743,127,c),
(742,120,o),
(742,113,o),
(740,106,c),
(732,115,o),
(723,124,o),
(712,129,c),
(711,122,o),
(714,117,o),
(711,108,c),
(711,108,o),
(694,129,o),
(683,132,c),
(683,122,o),
(680,115,o),
(676,110,c),
(671,122,o),
(662,132,o),
(649,132,c),
(645,124,o),
(647,110,o),
(640,110,cs),
(631,110,o),
(629,127,o),
(604,132,c),
(600,124,o),
(605,110,o),
(598,110,cs),
(585,110,o),
(580,127,o),
(556,127,c),
(556,122,o),
(556,106,o),
(553,106,cs),
(544,106,o),
(542,120,o),
(515,117,c),
(515,110,o),
(518,96,o),
(515,96,cs),
(504,96,o),
(495,108,o),
(475,108,c),
(475,101,o),
(482,87,o),
(478,87,cs),
(467,87,o),
(451,101,o),
(437,101,c),
(438,92,o),
(440,85,o),
(438,77,c),
(418,73,o),
(399,70,o),
(381,66,c),
(367,92,o),
(325,132,o),
(315,134,c),
(302,103,o),
(266,70,o),
(232,63,c),
(240,59,o),
(250,53,o),
(256,45,c),
(252,44,o),
(248,44,o),
(244,44,cs),
(226,44,o),
(199,54,o),
(197,59,cs),
(186,99,o),
(65,218,o),
(30,212,c)
);
}
);
width = 1111;
}
);
note = e;
unicode = 101;
},
{
glyphname = f;
layers = (
{
.lastUpdate = 755097640.316;
hints = (
{
horizontal = 1;
place = (-29,90);
type = Stem;
},
{
horizontal = 1;
place = (-162,104);
type = Stem;
},
{
horizontal = 1;
place = (-240,468);
type = Stem;
},
{
place = (804,73);
type = Stem;
},
{
place = (552,71);
type = Stem;
},
{
place = (30,847);
type = Stem;
}
);
layerId = m01;
shapes = (
{
closed = 1;
nodes = (
(783,16,o),
(777,24,o),
(777,31,cs),
(777,40,o),
(783,48,o),
(790,48,cs),
(798,48,o),
(804,40,o),
(804,31,cs),
(804,24,o),
(798,16,o),
(790,16,cs)
);
},
{
closed = 1;
nodes = (
(30,84,o),
(43,43,o),
(43,19,cs),
(43,11,o),
(39,-6,o),
(39,-49,cs),
(39,-72,o),
(49,-119,o),
(60,-119,cs),
(106,-119,o),
(166,-35,o),
(187,-29,c),
(232,-31,o),
(263,-43,o),
(293,-58,c),
(275,-63,o),
(253,-60,o),
(253,-96,cs),
(253,-131,o),
(292,-162,o),
(312,-162,cs),
(348,-162,o),
(382,-133,o),
(400,-110,c),
(453,-128,o),
(508,-131,o),
(563,-131,c),
(556,-136,o),
(552,-142,o),
(552,-148,cs),
(550,-184,o),
(580,-240,o),
(586,-240,cs),
(602,-240,o),
(629,-198,o),
(623,-125,c),
(748,-107,o),
(877,-50,o),
(877,3,cs),
(877,43,o),
(723,142,o),
(589,168,c),
(592,211,o),
(575,228,o),
(550,228,cs),
(519,228,o),
(475,201,o),
(439,167,c),
(398,183,o),
(360,228,o),
(316,228,cs),
(289,228,o),
(249,181,o),
(249,134,cs),
(249,95,o),
(288,110,o),
(307,100,c),
(279,83,o),
(246,68,o),
(193,61,c),
(154,82,o),
(141,158,o),
(51,185,cs),
(31,191,o),
(30,144,o),
(30,127,cs)
);
}
);
width = 907;
}
);
note = f;
unicode = 102;
},
{
glyphname = g;
layers = (
{
.lastUpdate = 755097640.316;
hints = (
{
horizontal = 1;
place = (-20,59);
type = Stem;
},
{
horizontal = 1;
place = (-116,257);
type = Stem;
},
{
horizontal = 1;
place = (-203,21);
target = up;
type = BottomGhost;
},
{
place = (856,51);
type = Stem;
}
);
layerId = m01;
shapes = (
{
closed = 1;
nodes = (
(829,-11,o),
(822,-3,o),
(822,7,cs),
(822,16,o),
(829,24,o),
(838,24,cs),
(849,24,o),
(856,16,o),
(856,7,cs),
(856,-3,o),
(849,-11,o),
(838,-11,cs)
);
},
{
closed = 1;
nodes = (
(30,114,o),
(88,40,o),
(88,7,cs),
(88,-19,o),
(31,-65,o),
(31,-143,cs),
(31,-148,o),
(33,-150,o),
(36,-150,cs),
(60,-150,o),
(168,-20,o),
(190,-20,cs),
(237,-22,o),
(271,-28,o),
(296,-36,c),
(291,-40,o),
(283,-46,o),
(276,-50,cs),
(273,-52,o),
(270,-56,o),
(276,-62,cs),
(310,-97,o),
(300,-167,o),
(300,-192,cs),
(300,-200,o),
(302,-203,o),
(305,-203,cs),
(309,-203,o),
(315,-197,o),
(319,-192,c),
(335,-177,o),
(375,-140,o),
(398,-103,c),
(421,-104,o),
(463,-109,o),
(498,-112,c),
(482,-122,o),
(460,-110,o),
(460,-126,cs),
(460,-190,o),
(466,-266,o),
(484,-266,cs),
(517,-266,o),
(546,-116,o),
(546,-116,c),
(611,-116,o),
(907,-110,o),
(907,-2,cs),
(907,46,o),
(684,141,o),
(538,141,cs),
(522,141,o),
(507,139,o),
(493,136,c),
(479,158,o),
(399,273,o),
(380,273,cs),
(373,273,o),
(367,266,o),
(367,254,cs),
(367,225,o),
(348,159,o),
(343,133,cs),
(340,114,o),
(346,108,o),
(357,108,cs),
(371,108,o),
(379,105,o),
(388,93,c),
(342,69,o),
(292,44,o),
(214,39,c),
(174,39,o),
(66,178,o),
(37,178,cs),
(33,178,o),
(30,175,o),
(30,167,cs)
);
}
);
width = 937;
}
);
note = g;
unicode = 103;
},
{
glyphname = h;
layers = (
{
.lastUpdate = 755097640.316;
hints = (
{
horizontal = 1;
place = (70,18);
type = Stem;
},
{
horizontal = 1;
place = (-68,147);
type = Stem;
},
{
horizontal = 1;
place = (-249,68);
type = Stem;
},
{
horizontal = 1;
place = (-366,60);
type = Stem;
},
{
horizontal = 1;
place = (-3,21);
target = up;
type = BottomGhost;
},
{
place = (963,61);
type = Stem;
},
{
place = (30,108);
type = Stem;
}
);
layerId = m01;
shapes = (
{
closed = 1;
nodes = (
(944,46,o),
(939,51,o),
(939,58,cs),
(939,63,o),
(944,70,o),
(951,70,cs),
(959,70,o),
(963,63,o),
(963,58,cs),
(963,51,o),
(959,46,o),
(951,46,cs)
);
},
{
closed = 1;
nodes = (
(30,-203,o),
(56,-253,o),
(85,-263,c),
(118,-319,o),
(174,-366,o),
(246,-366,cs),
(265,-366,o),
(283,-365,o),
(302,-362,c),
(320,-365,o),
(341,-367,o),
(360,-367,cs),
(381,-367,o),
(401,-364,o),
(414,-359,cs),
(444,-345,o),
(484,-340,o),
(511,-326,cs),
(540,-312,o),
(574,-291,o),
(595,-284,cs),
(617,-277,o),
(657,-274,o),
(682,-267,cs),
(703,-260,o),
(718,-249,o),
(738,-249,cs),
(757,-249,o),
(779,-253,o),
(801,-251,cs),
(826,-249,o),
(837,-244,o),
(856,-246,cs),
(876,-249,o),
(914,-270,o),
(930,-274,cs),
(946,-279,o),
(957,-272,o),
(961,-267,cs),
(964,-263,o),
(963,-253,o),
(955,-244,cs),
(948,-235,o),
(925,-218,o),
(909,-207,cs),
(892,-195,o),
(853,-197,o),
(831,-190,cs),
(816,-185,o),
(779,-181,o),
(749,-181,cs),
(737,-181,o),
(726,-182,o),
(718,-183,cs),
(689,-188,o),
(664,-200,o),
(644,-207,cs),
(624,-214,o),
(603,-214,o),
(586,-218,cs),
(570,-223,o),
(556,-232,o),
(538,-239,cs),
(520,-246,o),
(511,-246,o),
(484,-253,cs),
(457,-260,o),
(435,-274,o),
(412,-281,cs),
(388,-288,o),
(370,-286,o),
(342,-291,cs),
(320,-294,o),
(302,-300,o),
(284,-306,c),
(258,-305,o),
(237,-300,o),
(219,-294,c),
(200,-272,o),
(184,-249,o),
(172,-242,cs),
(153,-230,o),
(138,-176,o),
(138,-153,cs),
(138,-129,o),
(147,-108,o),
(162,-101,cs),
(174,-97,o),
(181,-68,o),
(214,-68,cs),
(239,-68,o),
(244,-75,o),
(271,-75,cs),
(298,-75,o),
(298,-64,o),
(324,-64,cs),
(349,-64,o),
(361,-85,o),
(379,-85,cs),
(397,-85,o),
(415,-78,o),
(426,-78,cs),
(437,-78,o),
(437,-87,o),
(462,-87,cs),
(476,-87,o),
(496,-78,o),
(517,-68,c),
(532,-68,ls),
(685,-68,o),
(765,-29,o),
(819,-29,cs),
(838,-29,o),
(835,-33,o),
(862,-33,cs),
(891,-33,o),
(943,-5,o),
(972,-3,cs),
(988,-3,o),
(1000,6,o),
(1006,23,cs),
(1008,27,o),
(1024,32,o),
(1024,49,cs),
(1024,67,o),
(1009,84,o),
(972,84,cs),
(939,84,o),
(921,88,o),
(878,88,cs),
(810,88,o),
(726,48,o),
(597,37,c),
(581,57,o),
(560,79,o),
(543,79,cs),
(518,79,o),
(505,74,o),
(484,74,cs),
(462,74,o),
(437,93,o),
(385,93,cs),
(336,93,o),
(324,109,o),
(286,109,cs),
(212,109,o),
(183,86,o),
(158,86,cs),
(131,86,o),
(102,49,o),
(81,32,cs),
(70,23,o),
(66,-1,o),
(59,-19,cs),
(48,-47,o),
(30,-80,o),
(30,-104,cs),
(30,-129,o),
(34,-136,o),
(34,-148,cs),
(34,-160,o),
(30,-167,o),
(30,-178,cs)
);
}
);
width = 1054;
}
);
note = h;
unicode = 104;
},
{
glyphname = i;
layers = (
{
.lastUpdate = 755097640.316;
hints = (
{
horizontal = 1;
place = (-15,54);
type = Stem;
},
{
horizontal = 1;
place = (-15,20);
type = Stem;
},
{
horizontal = 1;
place = (-211,21);
target = up;
type = BottomGhost;
},
{
place = (637,33);
type = Stem;
}
);
layerId = m01;
shapes = (
{
closed = 1;
nodes = (
(619,5,o),
(614,10,o),
(614,17,cs),
(614,23,o),
(619,28,o),
(625,28,cs),
(632,28,o),
(637,23,o),
(637,17,cs),
(637,10,o),
(632,5,o),
(625,5,cs)
);
},
{
closed = 1;
nodes = (
(28,133,o),
(108,25,o),
(108,10,cs),
(108,2,o),
(44,-103,o),
(47,-107,c),
(61,-107,o),
(177,-15,o),
(182,-15,cs),
(206,-16,o),
(225,-22,o),
(240,-30,c),
(228,-35,o),
(209,-32,o),
(209,-37,cs),
(209,-43,o),
(238,-53,o),
(258,-90,cs),
(280,-133,o),
(276,-163,o),
(281,-164,c),
(290,-164,o),
(329,-142,o),
(358,-111,c),
(377,-119,o),
(401,-123,o),
(431,-123,cs),
(438,-123,o),
(446,-122,o),
(454,-121,c),
(443,-142,o),
(428,-152,o),
(428,-156,cs),
(428,-158,o),
(438,-170,o),
(451,-193,cs),
(462,-213,o),
(470,-236,o),
(472,-236,cs),
(473,-236,o),
(476,-226,o),
(478,-211,c),
(485,-222,o),
(488,-231,o),
(490,-231,c),
(493,-230,o),
(494,-163,o),
(484,-115,c),
(567,-94,o),
(670,-34,o),
(670,8,cs),
(670,30,o),
(607,69,o),
(586,82,cs),
(550,105,o),
(519,142,o),
(442,142,cs),
(432,142,o),
(423,141,o),
(414,140,c),
(386,179,o),
(353,248,o),
(347,248,cs),
(341,248,o),
(340,212,o),
(330,172,cs),
(324,146,o),
(308,136,o),
(308,130,cs),
(308,126,o),
(324,119,o),
(335,108,c),
(288,80,o),
(243,45,o),
(184,39,c),
(173,49,o),
(40,149,o),
(31,138,cs)
);
}
);
width = 700;
}
);
note = i;
unicode = 105;
},
{
glyphname = j;
layers = (
{
.lastUpdate = 755097640.317;
hints = (
{
horizontal = 1;
place = (52,41);
type = Stem;
},
{
horizontal = 1;
place = (-92,206);
type = Stem;
},
{
place = (783,11);
type = Stem;
},
{
place = (587,22);
type = Stem;
}
);
layerId = m01;
shapes = (
{
closed = 1;
nodes = (
(919,32,o),
(914,36,o),
(914,43,cs),
(914,48,o),
(919,52,o),
(924,52,cs),
(934,52,o),
(939,48,o),
(939,43,cs),
(939,36,o),
(934,32,o),
(924,32,cs)
);
},
{
closed = 1;
nodes = (
(37,88,o),
(82,15,o),
(82,-19,cs),
(82,-63,o),
(50,-129,o),
(57,-171,c),
(84,-171,o),
(155,-60,o),
(215,-48,c),
(257,-55,o),
(283,-69,o),
(307,-80,c),
(292,-92,o),
(264,-105,o),
(264,-126,cs),
(264,-150,o),
(309,-164,o),
(326,-164,cs),
(339,-164,o),
(382,-133,o),
(423,-92,c),
(484,-90,o),
(543,-85,o),
(587,-84,c),
(576,-122,o),
(552,-136,o),
(552,-152,cs),
(552,-162,o),
(547,-181,o),
(554,-181,cs),
(578,-181,o),
(606,-141,o),
(609,-84,c),
(625,-85,o),
(624,-93,o),
(710,-93,cs),
(741,-93,o),
(770,-86,o),
(794,-78,c),
(777,-112,o),
(780,-143,o),
(805,-143,cs),
(838,-143,o),
(836,-108,o),
(849,-56,c),
(863,-50,o),
(874,-46,o),
(883,-46,cs),
(921,-46,o),
(1064,20,o),
(1064,32,cs),
(1064,67,o),
(959,74,o),
(948,81,cs),
(943,85,o),
(931,93,o),
(915,93,cs),
(911,93,o),
(906,93,o),
(901,91,cs),
(895,88,o),
(888,98,o),
(875,100,cs),
(865,103,o),
(852,103,o),
(845,103,cs),
(836,103,o),
(823,114,o),
(781,114,cs),
(552,114,o),
(536,100,o),
(407,100,cs),
(397,100,o),
(389,100,o),
(380,99,c),
(357,128,o),
(305,169,o),
(291,169,cs),
(266,169,o),
(224,107,o),
(224,81,cs),
(224,75,o),
(242,69,o),
(257,61,c),
(228,49,o),
(196,37,o),
(153,32,c),
(137,43,o),
(74,115,o),
(41,115,cs),
(37,115,o),
(33,113,o),
(30,110,c)
);
}
);
width = 1094;
}
);
note = j;
unicode = 106;
},
{
glyphname = k;
layers = (
{
.lastUpdate = 755097640.317;
hints = (
{
horizontal = 1;
place = (-92,248);
type = Stem;
},
{
place = (734,53);
type = Stem;
},
{
place = (30,757);
type = Stem;
}
);
layerId = m01;
shapes = (
{
closed = 1;
nodes = (
(710,-4,o),
(703,3,o),
(703,12,cs),
(703,20,o),
(710,27,o),
(718,27,cs),
(727,27,o),
(734,20,o),
(734,12,cs),
(734,3,o),
(727,-4,o),
(718,-4,cs)
);
},
{
closed = 1;
nodes = (
(30,-116,o),
(33,-120,o),
(39,-120,cs),
(67,-120,o),
(153,-25,o),
(180,-18,c),
(270,-25,o),
(269,-40,o),
(275,-45,c),
(258,-53,o),
(237,-60,o),
(237,-73,cs),
(237,-85,o),
(244,-97,o),
(249,-111,cs),
(255,-123,o),
(249,-159,o),
(268,-159,cs),
(288,-159,o),
(311,-109,o),
(331,-78,c),
(357,-78,o),
(392,-83,o),
(430,-87,c),
(415,-97,o),
(401,-109,o),
(401,-126,cs),
(401,-161,o),
(433,-225,o),
(442,-225,cs),
(455,-225,o),
(473,-144,o),
(482,-91,c),
(492,-92,o),
(503,-92,o),
(513,-92,cs),
(641,-92,o),
(787,-42,o),
(787,-13,cs),
(787,15,o),
(635,156,o),
(506,156,cs),
(499,156,o),
(492,156,o),
(485,155,c),
(465,194,o),
(438,235,o),
(419,239,c),
(406,239,o),
(375,196,o),
(343,173,cs),
(315,152,o),
(249,133,o),
(249,111,cs),
(249,95,o),
(275,89,o),
(287,78,c),
(260,65,o),
(234,54,o),
(211,50,c),
(140,62,o),
(91,164,o),
(46,163,cs),
(38,163,o),
(31,154,o),
(31,145,cs),
(31,109,o),
(94,47,o),
(94,16,cs),
(94,-2,o),
(30,-43,o),
(30,-107,cs)
);
}
);
width = 817;
}
);
note = k;
unicode = 107;
},
{
glyphname = l;
layers = (
{
.lastUpdate = 755097640.317;
hints = (
{
horizontal = 1;
place = (-105,92);
type = Stem;
},
{
horizontal = 1;
place = (-136,238);
type = Stem;
},
{
place = (821,64);
type = Stem;
}
);
layerId = m01;
shapes = (
{
closed = 1;
nodes = (
(794,-13,o),
(786,-6,o),
(786,5,cs),
(786,14,o),
(794,21,o),
(803,21,cs),
(813,21,o),
(821,14,o),
(821,5,cs),
(821,-6,o),
(813,-13,o),
(803,-13,cs)
);
},
{
closed = 1;
nodes = (
(-1,202,o),
(68,75,o),
(66,36,cs),
(65,-13,o),
(30,-110,o),
(60,-110,cs),
(86,-110,o),
(110,-19,o),
(135,-12,c),
(149,-16,o),
(188,-47,o),
(253,-77,c),
(254,-109,o),
(233,-119,o),
(233,-142,cs),
(233,-163,o),
(257,-190,o),
(288,-190,cs),
(312,-190,o),
(315,-138,o),
(326,-105,c),
(368,-119,o),
(417,-129,o),
(472,-134,c),
(450,-147,o),
(405,-155,o),
(405,-177,cs),
(405,-198,o),
(422,-227,o),
(432,-227,cs),
(448,-227,o),
(487,-179,o),
(514,-136,c),
(528,-136,ls),
(606,-136,o),
(705,-105,o),
(746,-105,cs),
(813,-105,o),
(885,-33,o),
(885,-4,cs),
(885,27,o),
(698,102,o),
(560,102,cs),
(533,102,o),
(506,100,o),
(480,96,c),
(468,164,o),
(419,250,o),
(398,250,cs),
(390,250,o),
(375,223,o),
(362,200,cs),
(345,174,o),
(330,151,o),
(330,141,cs),
(330,127,o),
(349,95,o),
(363,73,c),
(308,61,o),
(260,48,o),
(222,44,c),
(119,53,o),
(89,202,o),
(48,202,cs)
);
}
);
width = 915;
}
);
note = l;
unicode = 108;
},
{
glyphname = m;
layers = (
{
.lastUpdate = 755097640.317;
hints = (
{
horizontal = 1;
place = (-32,59);
type = Stem;
},
{
horizontal = 1;
place = (-67,65);
type = Stem;
},
{
horizontal = 1;
place = (-99,211);
type = Stem;
},
{
place = (464,63);
type = Stem;
}
);
layerId = m01;
shapes = (
{
closed = 1;
nodes = (
(782,-2,o),
(775,4,o),
(775,13,cs),
(775,19,o),
(782,27,o),
(790,27,cs),
(797,27,o),
(805,19,o),
(805,13,cs),
(805,4,o),
(797,-2,o),
(790,-2,cs)
);
},
{
closed = 1;
nodes = (
(23,87,o),
(103,6,o),
(103,-8,cs),
(103,-18,o),
(35,-99,o),
(43,-108,cs),
(50,-118,o),
(190,-32,o),
(196,-32,cs),
(261,-29,o),
(308,-34,o),
(347,-42,c),
(324,-70,o),
(313,-68,o),
(310,-73,cs),
(307,-79,o),
(314,-99,o),
(319,-112,cs),
(325,-132,o),
(323,-155,o),
(329,-155,cs),
(340,-155,o),
(381,-104,o),
(389,-53,c),
(425,-64,o),
(455,-76,o),
(490,-85,c),
(474,-105,o),
(466,-103,o),
(464,-114,c),
(458,-202,o),
(478,-196,o),
(481,-208,cs),
(484,-220,o),
(488,-222,o),
(493,-222,cs),
(503,-222,o),
(524,-145,o),
(527,-93,c),
(550,-97,o),
(576,-99,o),
(607,-99,cs),
(643,-99,o),
(713,-74,o),
(742,-58,c),
(757,-62,o),
(773,-67,o),
(789,-67,cs),
(796,-67,o),
(802,-66,o),
(809,-64,cs),
(818,-60,o),
(827,-57,o),
(835,-53,c),
(843,-57,o),
(838,-73,o),
(841,-73,cs),
(844,-73,o),
(850,-58,o),
(852,-43,c),
(869,-32,o),
(877,-22,o),
(872,-11,cs),
(865,7,o),
(859,3,o),
(845,10,cs),
(815,28,o),
(803,48,o),
(775,61,cs),
(712,90,o),
(622,112,o),
(577,112,cs),
(563,112,o),
(550,111,o),
(538,110,c),
(535,164,o),
(522,241,o),
(511,241,cs),
(499,241,o),
(496,213,o),
(469,188,cs),
(445,165,o),
(418,155,o),
(418,143,cs),
(418,135,o),
(436,109,o),
(449,85,c),
(387,60,o),
(327,27,o),
(208,27,cs),
(190,27,o),
(73,97,o),
(39,97,cs),
(35,97,o),
(33,96,o),
(31,94,cs)
);
}
);
width = 904;
}
);
note = m;
unicode = 109;
},
{
glyphname = n;
layers = (
{
.lastUpdate = 755097640.317;
hints = (
{
horizontal = 1;
place = (36,34);
type = Stem;
},
{
horizontal = 1;
place = (-10,123);
type = Stem;
},
{
horizontal = 1;
place = (-17,20);
type = Stem;
},
{
horizontal = 1;
place = (-58,141);
type = Stem;
},
{
horizontal = 1;
place = (-264,79);
type = Stem;
},
{
place = (1086,14);
type = Stem;
},
{
place = (1031,22);
type = Stem;
},
{
place = (1002,28);
type = Stem;
},
{
place = (30,92);
type = Stem;
}
);
layerId = m01;
shapes = (
{
closed = 1;
nodes = (
(976,3,o),
(969,11,o),
(969,20,cs),
(969,28,o),
(976,36,o),
(986,36,cs),
(994,36,o),
(1002,28,o),
(1002,20,cs),
(1002,11,o),
(994,3,o),
(986,3,cs)
);
},
{
closed = 1;
nodes = (
(30,-120,o),
(46,-144,o),
(60,-154,c),
(66,-208,o),
(93,-264,o),
(171,-264,cs),
(259,-264,o),
(459,-189,o),
(475,-176,cs),
(505,-153,o),
(540,-107,o),
(540,-94,cs),
(540,-86,o),
(510,-73,o),
(487,-73,cs),
(447,-73,o),
(407,-175,o),
(230,-185,cs),
(193,-188,o),
(122,-188,o),
(122,-163,cs),
(122,-41,o),
(463,-10,o),
(510,-10,cs),
(579,-10,o),
(786,-58,o),
(843,-58,cs),
(912,-58,o),
(930,-20,o),
(1017,-24,cs),
(1019,-24,o),
(1021,-24,o),
(1025,-23,c),
(1027,-27,o),
(1031,-30,o),
(1031,-30,c),
(1032,-30,o),
(1031,-27,o),
(1030,-23,c),
(1033,-26,o),
(1037,-30,o),
(1038,-30,cs),
(1039,-30,o),
(1038,-26,o),
(1036,-22,c),
(1037,-21,l),
(1040,-24,o),
(1043,-27,o),
(1044,-27,c),
(1044,-27,o),
(1044,-26,o),
(1044,-25,c),
(1047,-27,l),
(1048,-27,o),
(1047,-24,o),
(1045,-20,c),
(1049,-22,o),
(1052,-25,o),
(1053,-25,cs),
(1054,-25,o),
(1054,-22,o),
(1053,-19,c),
(1056,-22,o),
(1059,-25,o),
(1060,-25,cs),
(1061,-25,o),
(1059,-21,o),
(1057,-16,c),
(1058,-16,l),
(1061,-20,o),
(1064,-23,o),
(1065,-23,cs),
(1066,-23,o),
(1065,-19,o),
(1063,-15,c),
(1067,-18,o),
(1070,-21,o),
(1071,-21,cs),
(1072,-21,o),
(1071,-18,o),
(1069,-14,c),
(1072,-17,o),
(1075,-20,o),
(1076,-20,cs),
(1077,-20,o),
(1076,-16,o),
(1074,-11,c),
(1078,-14,o),
(1081,-17,o),
(1082,-17,cs),
(1083,-17,o),
(1082,-13,o),
(1081,-9,c),
(1083,-12,o),
(1086,-15,o),
(1087,-15,cs),
(1088,-15,o),
(1087,-11,o),
(1085,-6,c),
(1086,-6,l),
(1088,-9,o),
(1091,-12,o),
(1092,-12,cs),
(1093,-12,o),
(1092,-8,o),
(1090,-4,c),
(1096,0,o),
(1100,4,o),
(1100,9,cs),
(1100,32,o),
(1035,70,o),
(949,70,cs),
(912,70,o),
(885,83,o),
(810,83,cs),
(687,83,o),
(651,113,o),
(459,113,cs),
(432,113,o),
(403,111,o),
(373,106,c),
(364,110,o),
(346,112,o),
(324,112,cs),
(305,112,o),
(282,110,o),
(259,107,cs),
(228,103,o),
(178,63,o),
(152,35,c),
(133,42,o),
(30,-57,o),
(30,-94,cs)
);
}
);
width = 1130;
}
);
note = n;
unicode = 110;
},
{
glyphname = o;
layers = (
{
.lastUpdate = 755097640.317;
hints = (
{
horizontal = 1;
place = (58,35);
type = Stem;
},
{
horizontal = 1;
place = (-43,82);
type = Stem;
},
{
horizontal = 1;
place = (-103,240);
type = Stem;
},
{
horizontal = 1;
place = (0,21);
target = up;
type = BottomGhost;
},
{
place = (1188,19);
type = Stem;
},
{
place = (575,89);
type = Stem;
}
);
layerId = m01;
shapes = (
{
closed = 1;
nodes = (
(1127,33,o),
(1121,37,o),
(1121,45,cs),
(1121,52,o),
(1127,58,o),
(1133,58,cs),
(1142,58,o),
(1148,52,o),
(1148,45,cs),
(1148,37,o),
(1142,33,o),
(1133,33,cs)
);
},
{
closed = 1;
nodes = (
(22,96,o),
(43,8,o),
(43,-11,cs),
(43,-26,o),
(37,-117,o),
(47,-131,cs),
(58,-144,o),
(251,-43,o),
(260,-43,cs),
(307,-43,o),
(346,-45,o),
(380,-49,c),
(359,-77,o),
(339,-90,o),
(339,-101,cs),
(339,-117,o),
(354,-163,o),
(379,-163,cs),
(389,-163,o),
(416,-116,o),
(433,-56,c),
(492,-66,o),
(537,-79,o),
(595,-89,c),
(584,-105,o),
(575,-115,o),
(575,-125,cs),
(575,-177,o),
(589,-188,o),
(589,-204,cs),
(589,-223,o),
(596,-248,o),
(612,-248,cs),
(626,-248,o),
(656,-185,o),
(664,-98,c),
(695,-101,o),
(731,-103,o),
(774,-103,cs),
(894,-103,o),
(1077,-58,o),
(1188,0,c),
(1198,-24,o),
(1193,-51,o),
(1196,-51,c),
(1211,-41,o),
(1205,-5,o),
(1207,3,cs),
(1209,9,o),
(1219,9,o),
(1221,9,cs),
(1226,9,o),
(1221,-27,o),
(1226,-27,cs),
(1232,-27,o),
(1238,11,o),
(1238,17,cs),
(1238,24,o),
(1236,33,o),
(1234,42,cs),
(1230,60,o),
(1234,74,o),
(1230,74,cs),
(1228,74,o),
(1223,69,o),
(1223,63,c),
(1217,66,o),
(1217,58,o),
(1186,74,c),
(1186,80,o),
(1181,88,o),
(1179,88,cs),
(1169,88,o),
(1171,85,o),
(1167,80,c),
(1156,88,o),
(1123,93,o),
(1108,93,cs),
(1072,93,o),
(1047,137,o),
(772,137,cs),
(739,137,o),
(713,133,o),
(688,127,c),
(670,191,o),
(633,257,o),
(621,257,cs),
(604,257,o),
(604,222,o),
(598,216,cs),
(575,197,o),
(549,148,o),
(549,131,cs),
(549,123,o),
(563,108,o),
(577,91,c),
(509,68,o),
(415,44,o),
(239,39,cs),
(188,39,o),
(64,112,o),
(35,101,cs)
);
}
);
width = 1268;
}
);
note = o;
unicode = 111;
},
{
glyphname = p;
layers = (
{
.lastUpdate = 755097640.317;
hints = (
{
horizontal = 1;
place = (-30,57);
type = Stem;
},
{
place = (744,48);
type = Stem;
},
{
place = (30,762);
type = Stem;
}
);
layerId = m01;
shapes = (
{
closed = 1;
nodes = (
(725,-2,o),
(720,3,o),
(720,10,cs),
(720,16,o),
(725,22,o),
(732,22,cs),
(738,22,o),
(744,16,o),
(744,10,cs),
(744,3,o),
(738,-2,o),
(732,-2,cs)
);
},
{
closed = 1;
nodes = (
(146,-60,o),
(163,-30,o),
(210,-30,cs),
(251,-30,o),
(274,-47,o),
(306,-66,c),
(293,-71,o),
(277,-69,o),
(273,-80,cs),
(266,-96,o),
(266,-167,o),
(299,-167,cs),
(311,-167,o),
(342,-149,o),
(378,-99,c),
(412,-110,o),
(455,-117,o),
(516,-117,cs),
(534,-117,o),
(551,-117,o),
(566,-116,c),
(525,-147,o),
(524,-153,o),
(524,-181,cs),
(524,-208,o),
(540,-236,o),
(553,-236,cs),
(579,-236,o),
(581,-175,o),
(599,-113,c),
(688,-104,o),
(708,-81,o),
(721,-79,c),
(761,-68,o),
(792,-54,o),
(792,-8,cs),
(792,15,o),
(752,39,o),
(702,75,cs),
(686,88,o),
(669,116,o),
(628,132,c),
(657,217,o),
(610,257,o),
(540,257,cs),
(476,257,o),
(394,197,o),
(376,162,cs),
(371,151,o),
(384,131,o),
(397,109,c),
(392,106,o),
(388,104,o),
(383,102,c),
(358,135,o),
(345,165,o),
(327,165,cs),
(303,165,o),
(289,139,o),
(237,84,cs),
(229,76,o),
(254,61,o),
(272,38,c),
(256,31,o),
(240,27,o),
(222,27,cs),
(165,27,o),
(146,86,o),
(40,122,cs),
(6,132,o),
(73,48,o),
(73,-7,cs),
(73,-33,o),
(12,-136,o),
(36,-122,cs)
);
}
);
width = 822;
}
);
note = p;
unicode = 112;
},
{
glyphname = q;
layers = (
{
.lastUpdate = 755097640.317;
hints = (
{
horizontal = 1;
place = (146,16);
type = Stem;
},
{
horizontal = 1;
place = (123,14);
type = Stem;
},
{
horizontal = 1;
place = (44,89);
type = Stem;
},
{
horizontal = 1;
place = (-87,9);
type = Stem;
},
{
horizontal = 1;
place = (-99,8);
type = Stem;
},
{
horizontal = 1;
place = (-110,10);
type = Stem;
},
{
horizontal = 1;
place = (-127,10);
type = Stem;
},
{
place = (590,8);
type = Stem;
},
{
place = (549,52);
type = Stem;
},
{
place = (450,19);
type = Stem;
}
);
layerId = m01;
shapes = (
{
closed = 1;
nodes = (
(476,122,o),
(469,127,o),
(469,134,cs),
(469,141,o),
(476,146,o),
(483,146,cs),
(490,146,o),
(496,141,o),
(496,134,cs),
(496,127,o),
(490,122,o),
(483,122,cs)
);
},
{
closed = 1;
nodes = (
(38,-121,o),
(72,-86,o),
(127,-60,c),
(134,-61,l),
(113,-84,o),
(98,-98,o),
(104,-102,cs),
(105,-103,l),
(111,-103,o),
(128,-86,o),
(152,-64,c),
(155,-64,l),
(148,-77,o),
(145,-85,o),
(149,-86,cs),
(150,-86,o),
(150,-87,o),
(151,-87,cs),
(155,-87,o),
(160,-78,o),
(170,-65,c),
(177,-65,o),
(183,-65,o),
(188,-64,c),
(200,-94,o),
(226,-116,o),
(286,-116,cs),
(301,-116,o),
(335,-111,o),
(373,-101,c),
(388,-111,o),
(405,-116,o),
(411,-131,cs),
(412,-133,o),
(415,-135,o),
(418,-134,cs),
(420,-133,o),
(422,-130,o),
(421,-127,cs),
(415,-112,o),
(401,-105,o),
(388,-99,c),
(415,-103,o),
(448,-99,o),
(454,-115,cs),
(455,-117,o),
(458,-119,o),
(461,-118,cs),
(463,-117,o),
(465,-114,o),
(464,-111,cs),
(457,-93,o),
(432,-92,o),
(409,-91,c),
(410,-90,l),
(420,-89,o),
(430,-87,o),
(439,-87,cs),
(449,-87,o),
(458,-89,o),
(465,-96,cs),
(467,-98,o),
(470,-97,o),
(472,-95,cs),
(474,-93,o),
(473,-90,o),
(471,-88,cs),
(464,-81,o),
(454,-78,o),
(444,-78,c),
(482,-62,o),
(514,-42,o),
(523,-18,c),
(534,-27,o),
(551,-33,o),
(554,-40,cs),
(557,-51,o),
(553,-84,o),
(567,-114,c),
(553,-119,o),
(543,-98,o),
(520,-100,cs),
(517,-100,o),
(515,-103,o),
(515,-105,cs),
(515,-108,o),
(518,-110,o),
(520,-110,cs),
(532,-110,o),
(541,-117,o),
(550,-121,c),
(548,-124,l),
(536,-126,o),
(522,-117,o),
(507,-117,cs),
(499,-117,o),
(491,-120,o),
(483,-128,cs),
(481,-130,o),
(482,-133,o),
(484,-135,cs),
(486,-137,o),
(489,-136,o),
(491,-134,cs),
(496,-129,o),
(501,-127,o),
(507,-127,cs),
(519,-127,o),
(531,-134,o),
(544,-134,c),
(523,-138,o),
(500,-141,o),
(493,-166,c),
(492,-168,o),
(494,-171,o),
(497,-172,cs),
(499,-173,o),
(502,-171,o),
(503,-168,cs),
(509,-143,o),
(540,-147,o),
(564,-140,c),
(549,-149,o),
(529,-152,o),
(521,-173,cs),
(520,-176,o),
(522,-179,o),
(524,-180,cs),
(527,-181,o),
(530,-179,o),
(531,-177,cs),
(539,-153,o),
(572,-158,o),
(586,-133,c),
(595,-127,o),
(601,-114,o),
(601,-98,cs),
(601,-42,o),
(582,-4,o),
(536,24,c),
(549,34,o),
(563,44,o),
(568,44,cs),
(598,44,o),
(593,74,o),
(591,93,c),
(599,103,o),
(600,118,o),
(595,123,c),
(599,127,o),
(593,137,o),
(582,137,cs),
(575,137,o),
(566,133,o),
(550,133,cs),
(535,133,o),
(525,134,o),
(515,140,c),
(510,152,o),
(495,162,o),
(481,162,cs),
(464,162,o),
(451,148,o),
(450,134,c),
(439,142,o),
(423,149,o),
(412,149,cs),
(394,149,o),
(375,139,o),
(367,128,c),
(361,129,o),
(356,129,o),
(350,129,cs),
(259,129,o),
(196,101,o),
(182,32,c),
(123,31,o),
(75,8,o),
(75,-20,cs),
(75,-29,o),
(80,-37,o),
(89,-44,c),
(71,-55,o),
(59,-61,o),
(63,-65,c),
(65,-69,o),
(74,-65,o),
(88,-59,c),
(55,-89,o),
(26,-106,o),
(31,-113,cs)
);
},
{
closed = 1;
nodes = (
(577,119,o),
(588,124,o),
(590,120,cs),
(593,113,o),
(591,104,o),
(586,99,cs),
(583,97,o),
(577,100,o),
(577,110,cs)
);
}
);
width = 631;
}
);
note = q;
unicode = 113;
},
{
glyphname = r;
layers = (
{
.lastUpdate = 755097640.317;
hints = (
{
horizontal = 1;
place = (-27,66);
type = Stem;
},
{
place = (840,60);
type = Stem;
}
);
layerId = m01;
shapes = (
{
closed = 1;
nodes = (
(822,4,o),
(818,9,o),
(818,16,cs),
(818,22,o),
(822,27,o),
(828,27,cs),
(836,27,o),
(840,22,o),
(840,16,cs),
(840,9,o),
(836,4,o),
(828,4,cs)
);
},
{
closed = 1;
nodes = (
(111,-73,o),
(164,-27,o),
(186,-27,cs),
(205,-29,o),
(225,-36,o),
(247,-45,c),
(236,-58,o),
(227,-51,o),
(225,-55,cs),
(224,-59,o),
(239,-73,o),
(239,-94,cs),
(239,-127,o),
(233,-151,o),
(239,-151,cs),
(259,-151,o),
(324,-107,o),
(350,-84,c),
(377,-93,o),
(408,-101,o),
(444,-107,c),
(433,-118,o),
(405,-113,o),
(402,-123,cs),
(393,-154,o),
(393,-190,o),
(401,-190,cs),
(417,-190,o),
(472,-144,o),
(492,-113,c),
(519,-116,o),
(547,-117,o),
(579,-117,cs),
(702,-117,o),
(900,-86,o),
(900,-18,cs),
(900,47,o),
(714,119,o),
(531,121,c),
(517,137,o),
(484,173,o),
(446,200,cs),
(440,204,o),
(438,202,o),
(438,195,cs),
(438,165,o),
(396,134,o),
(386,128,cs),
(383,126,o),
(383,122,o),
(386,121,c),
(394,115,o),
(410,113,o),
(423,102,c),
(366,84,o),
(306,57,o),
(255,45,c),
(290,58,l),
(266,62,o),
(246,89,o),
(233,89,cs),
(224,89,o),
(218,80,o),
(218,72,cs),
(218,62,o),
(240,62,o),
(251,44,c),
(235,41,o),
(221,39,o),
(207,39,cs),
(156,39,o),
(120,99,o),
(35,113,c),
(35,82,o),
(50,51,o),
(50,18,cs),
(50,-17,o),
(30,-41,o),
(30,-76,c)
);
}
);
width = 930;
}
);
note = r;
unicode = 114;
},
{
glyphname = s;
layers = (
{
.lastUpdate = 755097640.317;
hints = (
{
horizontal = 1;
place = (-39,186);
type = Stem;
},
{
horizontal = 1;
place = (-160,218);
type = Stem;
},
{
horizontal = 1;
place = (-173,7);
type = Stem;
},
{
horizontal = 1;
place = (-192,110);
type = Stem;
},
{
horizontal = 1;
place = (-8,21);
target = up;
type = BottomGhost;
},
{
horizontal = 1;
place = (-14,21);
target = up;
type = BottomGhost;
},
{
place = (781,42);
type = Stem;
},
{
place = (743,42);
type = Stem;
},
{
place = (712,35);
type = Stem;
}
);
layerId = m01;
shapes = (
{
closed = 1;
nodes = (
(716,-18,o),
(712,-13,o),
(712,-8,cs),
(712,-2,o),
(716,2,o),
(722,2,cs),
(727,2,o),
(732,-2,o),
(732,-8,cs),
(732,-13,o),
(727,-18,o),
(722,-18,cs)
);
},
{
closed = 1;
nodes = (
(39,-107,o),
(56,-148,o),
(92,-162,c),
(106,-180,o),
(127,-192,o),
(153,-192,cs),
(232,-192,o),
(330,-157,o),
(330,-97,cs),
(330,-86,o),
(320,-71,o),
(295,-71,cs),
(274,-71,o),
(253,-79,o),
(231,-87,c),
(210,-80,o),
(180,-82,o),
(160,-82,cs),
(146,-82,o),
(125,-77,o),
(111,-71,c),
(135,-46,o),
(173,-39,o),
(212,-39,cs),
(273,-39,o),
(335,-57,o),
(345,-57,cs),
(358,-57,o),
(371,-49,o),
(381,-40,c),
(403,-49,l),
(391,-54,o),
(380,-60,o),
(380,-75,cs),
(380,-93,o),
(400,-101,o),
(411,-97,cs),
(424,-94,o),
(436,-80,o),
(448,-68,c),
(473,-79,o),
(498,-89,o),
(524,-96,c),
(523,-102,o),
(523,-107,o),
(523,-113,cs),
(523,-126,o),
(530,-141,o),
(547,-141,cs),
(560,-141,o),
(586,-122,o),
(599,-101,c),
(608,-98,o),
(616,-95,o),
(627,-95,cs),
(641,-95,o),
(636,-102,o),
(649,-102,cs),
(666,-102,o),
(689,-95,o),
(712,-83,c),
(683,-152,o),
(657,-154,o),
(588,-154,cs),
(574,-154,o),
(561,-155,o),
(550,-157,cs),
(522,-162,o),
(500,-169,o),
(472,-169,cs),
(463,-169,o),
(453,-168,o),
(442,-166,c),
(442,-170,l),
(454,-172,o),
(464,-173,o),
(475,-173,cs),
(496,-173,o),
(517,-169,o),
(547,-162,cs),
(557,-160,o),
(571,-160,o),
(586,-160,cs),
(670,-160,o),
(687,-154,o),
(720,-79,c),
(726,-76,o),
(731,-73,o),
(737,-69,c),
(740,-77,o),
(743,-89,o),
(743,-101,cs),
(743,-119,o),
(704,-151,o),
(706,-175,c),
(709,-175,l),
(708,-151,o),
(747,-122,o),
(747,-99,cs),
(747,-89,o),
(744,-76,o),
(741,-66,c),
(751,-59,o),
(761,-52,o),
(769,-44,c),
(773,-52,o),
(781,-73,o),
(781,-90,cs),
(781,-108,o),
(762,-131,o),
(765,-155,c),
(768,-155,l),
(767,-131,o),
(785,-111,o),
(785,-88,cs),
(785,-74,o),
(777,-50,o),
(773,-39,c),
(781,-31,o),
(787,-22,o),
(791,-14,c),
(804,-25,o),
(818,-52,o),
(818,-73,cs),
(818,-95,o),
(811,-126,o),
(824,-150,c),
(827,-150,l),
(816,-126,o),
(823,-91,o),
(823,-71,cs),
(823,-47,o),
(805,-18,o),
(794,-8,c),
(796,-2,o),
(797,3,o),
(797,9,cs),
(797,21,o),
(791,33,o),
(777,42,c),
(766,60,o),
(760,84,o),
(729,105,cs),
(692,129,o),
(659,118,o),
(625,134,cs),
(580,156,o),
(512,178,o),
(474,174,c),
(474,171,l),
(520,174,o),
(593,143,o),
(629,127,cs),
(666,111,o),
(688,122,o),
(723,102,cs),
(750,86,o),
(759,63,o),
(767,48,c),
(751,55,o),
(727,60,o),
(697,60,cs),
(664,60,o),
(641,58,o),
(606,58,cs),
(587,58,o),
(569,61,o),
(551,66,c),
(541,90,o),
(522,127,o),
(508,140,c),
(503,143,o),
(502,138,o),
(505,132,cs),
(509,123,o),
(513,109,o),
(512,96,cs),
(511,90,o),
(516,82,o),
(520,76,c),
(448,101,o),
(372,147,o),
(265,147,cs),
(195,147,o),
(79,123,o),
(47,61,cs),
(25,20,o),
(30,-19,o),
(34,-62,cs)
);
}
);
width = 857;
}
);
note = s;
unicode = 115;
},
{
glyphname = t;
layers = (
{
.lastUpdate = 755097640.317;
hints = (
{
horizontal = 1;
place = (-109,249);
type = Stem;
},
{
horizontal = 1;
place = (-127,217);
type = Stem;
},
{
horizontal = 1;
place = (-237,489);
type = Stem;
},
{
place = (652,61);
type = Stem;
},
{
place = (30,683);
type = Stem;
}
);
layerId = m01;
shapes = (
{
closed = 1;
nodes = (
(635,7,o),
(630,12,o),
(630,18,cs),
(630,24,o),
(635,29,o),
(641,29,cs),
(647,29,o),
(652,24,o),
(652,18,cs),
(652,12,o),
(647,7,o),
(641,7,cs)
);
},
{
closed = 1;
nodes = (
(30,21,o),
(49,-3,o),
(49,-29,cs),
(49,-66,o),
(37,-72,o),
(37,-102,cs),
(37,-121,o),
(50,-127,o),
(61,-127,cs),
(99,-127,o),
(149,-69,o),
(193,-51,c),
(217,-55,o),
(233,-60,o),
(246,-65,c),
(231,-84,o),
(212,-72,o),
(212,-130,cs),
(211,-158,o),
(220,-188,o),
(233,-188,cs),
(256,-190,o),
(278,-160,o),
(301,-119,cs),
(305,-112,o),
(312,-104,o),
(322,-99,c),
(337,-104,o),
(357,-107,o),
(385,-109,c),
(368,-120,o),
(354,-125,o),
(353,-147,cs),
(353,-191,o),
(387,-237,o),
(401,-237,cs),
(415,-237,o),
(429,-203,o),
(434,-177,cs),
(438,-156,o),
(445,-129,o),
(453,-109,c),
(563,-104,o),
(713,-62,o),
(713,-4,cs),
(713,30,o),
(561,140,o),
(452,140,cs),
(411,140,o),
(411,251,o),
(368,252,cs),
(347,252,o),
(308,225,o),
(308,145,cs),
(307,124,o),
(328,112,o),
(342,99,c),
(297,71,o),
(251,40,o),
(204,36,c),
(128,44,o),
(119,90,o),
(56,90,cs),
(35,90,o),
(30,68,o),
(30,54,cs)
);
}
);
width = 743;
}
);
note = t;
unicode = 116;
},
{
glyphname = u;
layers = (
{
.lastUpdate = 755097640.317;
hints = (
{
horizontal = 1;
place = (36,23);
type = Stem;
},
{
horizontal = 1;
place = (-36,50);
type = Stem;
},
{
horizontal = 1;
place = (-64,66);
type = Stem;
},
{
place = (831,70);
type = Stem;
},
{
place = (30,871);
type = Stem;
}
);
layerId = m01;
shapes = (
{
closed = 1;
nodes = (
(808,2,o),
(802,8,o),
(802,17,cs),
(802,24,o),
(808,30,o),
(816,30,cs),
(825,30,o),
(831,24,o),
(831,17,cs),
(831,8,o),
(825,2,o),
(816,2,cs)
);
},
{
closed = 1;
nodes = (
(102,-101,o),
(171,-48,o),
(193,-36,c),
(230,-40,o),
(257,-50,o),
(286,-61,c),
(276,-66,o),
(262,-61,o),
(253,-72,cs),
(226,-107,o),
(229,-134,o),
(241,-134,cs),
(266,-134,o),
(323,-100,o),
(343,-81,c),
(380,-92,o),
(427,-102,o),
(498,-105,c),
(491,-110,o),
(483,-114,o),
(478,-120,cs),
(471,-130,o),
(469,-150,o),
(472,-179,c),
(474,-187,o),
(475,-198,o),
(484,-191,cs),
(519,-161,o),
(546,-126,o),
(559,-107,c),
(561,-107,ls),
(741,-107,o),
(814,-64,o),
(856,-64,cs),
(897,-64,o),
(901,-27,o),
(901,-5,cs),
(901,39,o),
(782,97,o),
(599,98,c),
(582,118,o),
(534,173,o),
(492,203,cs),
(486,207,o),
(483,199,o),
(483,192,cs),
(483,162,o),
(475,147,o),
(460,127,cs),
(456,121,o),
(454,115,o),
(459,112,cs),
(465,108,o),
(479,100,o),
(491,91,c),
(410,81,o),
(346,59,o),
(295,42,c),
(276,48,o),
(259,59,o),
(244,59,cs),
(228,59,o),
(222,36,o),
(235,36,cs),
(246,36,o),
(255,33,o),
(263,31,c),
(234,21,o),
(209,15,o),
(187,14,c),
(153,16,o),
(106,76,o),
(30,76,c),
(30,45,o),
(69,30,o),
(69,-13,cs),
(69,-58,o),
(30,-74,o),
(30,-109,c)
);
}
);
width = 931;
}
);
note = u;
unicode = 117;
},
{
glyphname = v;
layers = (
{
.lastUpdate = 755097640.317;
hints = (
{
horizontal = 1;
place = (-36,71);
type = Stem;
},
{
horizontal = 1;
place = (-88,185);
type = Stem;
},
{
horizontal = 1;
place = (-93,181);
type = Stem;
},
{
place = (846,54);
type = Stem;
}
);
layerId = m01;
shapes = (
{
closed = 1;
nodes = (
(824,-1,o),
(818,5,o),
(818,14,cs),
(818,21,o),
(824,27,o),
(831,27,cs),
(840,27,o),
(846,21,o),
(846,14,cs),
(846,5,o),
(840,-1,o),
(831,-1,cs)
);
},
{
closed = 1;
nodes = (
(138,-93,o),
(201,-51,o),
(246,-36,c),
(295,-42,o),
(340,-50,o),
(384,-59,c),
(363,-88,o),
(341,-91,o),
(339,-101,cs),
(338,-115,o),
(372,-132,o),
(383,-127,c),
(394,-119,o),
(414,-88,o),
(436,-69,c),
(464,-75,o),
(491,-80,o),
(519,-83,c),
(509,-87,o),
(499,-87,o),
(495,-99,cs),
(489,-121,o),
(461,-144,o),
(477,-144,cs),
(508,-144,o),
(542,-109,o),
(561,-87,c),
(573,-88,o),
(584,-88,o),
(596,-88,cs),
(677,-88,o),
(900,-72,o),
(900,-13,cs),
(900,38,o),
(777,97,o),
(599,97,cs),
(576,97,o),
(554,95,o),
(531,93,c),
(519,109,o),
(486,148,o),
(452,172,cs),
(447,176,o),
(434,170,o),
(429,158,cs),
(426,150,o),
(419,146,o),
(419,139,cs),
(419,131,o),
(423,129,o),
(425,121,cs),
(426,113,o),
(423,104,o),
(428,102,cs),
(433,100,o),
(454,91,o),
(464,80,c),
(406,63,o),
(362,39,o),
(242,35,c),
(174,41,o),
(120,88,o),
(38,88,cs),
(20,88,o),
(90,2,o),
(110,0,c),
(92,-15,o),
(17,-93,o),
(32,-93,cs)
);
}
);
width = 930;
}
);
note = v;
unicode = 118;
},
{
glyphname = w;
layers = (
{
.lastUpdate = 755097640.317;
hints = (
{
horizontal = 1;
place = (166,50);
type = Stem;
},
{
horizontal = 1;
place = (-56,19);
type = Stem;
},
{
horizontal = 1;
place = (-91,18);
type = Stem;
},
{
horizontal = 1;
place = (-123,18);
type = Stem;
},
{
horizontal = 1;
place = (-199,21);
target = up;
type = BottomGhost;
},
{
place = (544,86);
type = Stem;
},
{
place = (511,12);
type = Stem;
}
);
layerId = m01;
shapes = (
{
closed = 1;
nodes = (
(504,123,o),
(493,133,o),
(493,145,cs),
(493,156,o),
(504,166,o),
(519,166,cs),
(534,166,o),
(544,156,o),
(544,145,cs),
(544,133,o),
(534,123,o),
(519,123,cs)
);
},
{
closed = 1;
nodes = (
(52,-120,o),
(151,-97,o),
(219,-155,cs),
(236,-170,o),
(244,-185,o),
(248,-188,cs),
(251,-191,o),
(259,-190,o),
(258,-183,cs),
(256,-175,o),
(245,-163,o),
(255,-154,cs),
(257,-152,o),
(260,-151,o),
(264,-151,cs),
(275,-151,o),
(293,-161,o),
(307,-170,cs),
(324,-180,o),
(344,-199,o),
(348,-199,cs),
(353,-198,o),
(356,-194,o),
(352,-186,c),
(319,-151,o),
(307,-151,o),
(319,-128,cs),
(323,-120,o),
(311,-115,o),
(301,-109,cs),
(280,-96,o),
(272,-80,o),
(288,-73,c),
(302,-75,o),
(315,-77,o),
(325,-77,cs),
(342,-77,o),
(360,-66,o),
(378,-55,c),
(379,-83,o),
(398,-144,o),
(432,-144,cs),
(442,-144,o),
(468,-132,o),
(473,-123,c),
(491,-122,o),
(508,-130,o),
(511,-139,c),
(514,-140,o),
(515,-142,o),
(518,-143,c),
(523,-143,o),
(525,-133,o),
(523,-128,cs),
(518,-117,o),
(499,-107,o),
(477,-105,c),
(494,-92,o),
(518,-88,o),
(525,-91,c),
(530,-91,o),
(534,-88,o),
(534,-79,c),
(533,-77,o),
(531,-74,o),
(529,-73,c),
(520,-71,o),
(491,-69,o),
(470,-87,c),
(480,-66,o),
(499,-56,o),
(505,-56,cs),
(509,-56,o),
(511,-51,o),
(511,-46,cs),
(511,-41,o),
(509,-37,o),
(505,-37,cs),
(498,-37,o),
(477,-47,o),
(462,-68,c),
(463,-59,o),
(467,-53,o),
(470,-51,cs),
(473,-48,o),
(474,-46,o),
(474,-42,cs),
(474,-36,o),
(468,-35,o),
(464,-37,c),
(459,-42,o),
(452,-53,o),
(448,-68,c),
(439,-55,o),
(428,-43,o),
(419,-31,c),
(451,-15,o),
(478,-5,o),
(488,5,cs),
(518,35,o),
(498,40,o),
(515,61,cs),
(529,77,o),
(630,100,o),
(630,143,cs),
(630,160,o),
(587,183,o),
(548,194,c),
(543,205,o),
(526,216,o),
(511,216,cs),
(497,216,o),
(480,204,o),
(476,193,c),
(437,181,o),
(391,159,o),
(358,158,cs),
(314,157,o),
(307,175,o),
(244,175,cs),
(199,175,o),
(172,148,o),
(154,125,c),
(139,129,o),
(117,133,o),
(101,133,cs),
(85,133,o),
(47,123,o),
(47,102,cs),
(47,96,o),
(50,80,o),
(75,71,c),
(64,64,o),
(55,54,o),
(55,39,cs),
(55,33,o),
(59,27,o),
(67,19,c),
(45,18,o),
(25,11,o),
(31,-18,cs)
);
}
);
width = 660;
}
);
note = w;
unicode = 119;
},
{
glyphname = x;
layers = (
{
.lastUpdate = 755097640.317;
hints = (
{
horizontal = 1;
place = (500,-20);
target = down;
type = TopGhost;
},
{
horizontal = 1;
place = (189,138);
type = Stem;
},
{
horizontal = 1;
place = (130,133);
type = Stem;
},
{
horizontal = 1;
place = (-65,133);
type = Stem;
},
{
horizontal = 1;
place = (-10,21);
target = up;
type = BottomGhost;
},
{
place = (850,30);
type = Stem;
},
{
place = (536,44);
type = Stem;
},
{
place = (30,83);
type = Stem;
}
);
layerId = m01;
shapes = (
{
closed = 1;
nodes = (
(836,-33,o),
(832,-27,o),
(832,-22,cs),
(832,-16,o),
(836,-10,o),
(841,-10,cs),
(845,-10,o),
(850,-16,o),
(850,-22,cs),
(850,-27,o),
(845,-33,o),
(841,-33,cs)
);
},
{
closed = 1;
nodes = (
(30,64,o),
(34,43,o),
(42,24,c),
(56,-58,o),
(103,-90,o),
(124,-90,cs),
(135,-90,o),
(140,-86,o),
(144,-81,c),
(194,-108,o),
(249,-121,o),
(287,-121,cs),
(466,-121,o),
(619,-65,o),
(664,-65,cs),
(718,-65,o),
(725,-70,o),
(751,-70,cs),
(782,-70,o),
(880,-61,o),
(880,-35,cs),
(880,-14,o),
(850,-2,o),
(826,21,cs),
(784,60,o),
(734,68,o),
(659,68,cs),
(530,68,o),
(511,34,o),
(350,26,c),
(337,55,o),
(277,64,o),
(218,64,cs),
(180,64,o),
(146,78,o),
(113,99,c),
(113,148,o),
(141,189,o),
(194,189,cs),
(314,189,o),
(367,130,o),
(454,130,cs),
(541,130,o),
(580,185,o),
(580,263,cs),
(580,347,o),
(525,416,o),
(463,450,c),
(452,464,o),
(444,476,o),
(440,480,cs),
(427,494,o),
(404,500,o),
(390,500,cs),
(384,500,o),
(379,499,o),
(377,497,cs),
(367,489,o),
(380,442,o),
(398,419,cs),
(406,409,o),
(444,379,o),
(479,355,c),
(507,324,o),
(533,294,o),
(536,271,c),
(526,266,o),
(511,263,o),
(484,263,cs),
(358,263,o),
(344,327,o),
(212,327,cs),
(109,327,o),
(72,278,o),
(61,226,c),
(41,193,o),
(30,147,o),
(30,86,cs)
);
}
);
width = 910;
}
);
note = x;
unicode = 120;
},
{
glyphname = y;
layers = (
{
.lastUpdate = 755097640.317;
hints = (
{
horizontal = 1;
place = (-38,64);
type = Stem;
},
{
horizontal = 1;
place = (-199,21);
target = up;
type = BottomGhost;
},
{
place = (853,54);
type = Stem;
},
{
place = (30,877);
type = Stem;
}
);
layerId = m01;
shapes = (
{
closed = 1;
nodes = (
(832,-17,o),
(826,-11,o),
(826,-3,cs),
(826,4,o),
(832,10,o),
(840,10,cs),
(847,10,o),
(853,4,o),
(853,-3,cs),
(853,-11,o),
(847,-17,o),
(840,-17,cs)
);
},
{
closed = 1;
nodes = (
(30,20,o),
(52,4,o),
(52,-15,cs),
(52,-31,o),
(31,-41,o),
(31,-86,cs),
(31,-101,o),
(46,-140,o),
(73,-130,cs),
(139,-109,o),
(175,-54,o),
(187,-38,c),
(245,-42,o),
(282,-48,o),
(311,-56,c),
(296,-64,o),
(280,-61,o),
(274,-70,cs),
(267,-82,o),
(274,-140,o),
(312,-140,cs),
(320,-140,o),
(361,-121,o),
(403,-84,c),
(441,-94,o),
(493,-101,o),
(601,-101,cs),
(611,-101,l),
(593,-117,o),
(580,-128,o),
(580,-148,cs),
(580,-179,o),
(597,-199,o),
(612,-199,cs),
(649,-199,o),
(663,-127,o),
(674,-100,c),
(799,-95,o),
(844,-77,o),
(859,-72,cs),
(883,-64,o),
(907,-52,o),
(907,-15,cs),
(907,10,o),
(867,24,o),
(819,45,cs),
(803,52,o),
(759,84,o),
(689,103,c),
(684,150,o),
(659,231,o),
(599,231,cs),
(543,231,o),
(470,161,o),
(447,117,cs),
(445,113,o),
(446,113,o),
(453,106,c),
(446,105,o),
(440,103,o),
(433,101,c),
(406,149,o),
(368,176,o),
(348,176,cs),
(321,176,o),
(279,135,o),
(228,61,cs),
(222,53,o),
(242,49,o),
(263,38,c),
(240,31,o),
(214,27,o),
(183,26,c),
(174,29,o),
(129,76,o),
(60,90,cs),
(39,94,o),
(30,63,o),
(30,51,cs)
);
}
);
width = 937;
}
);
note = y;
unicode = 121;
},
{
glyphname = z;
layers = (
{
.lastUpdate = 755097640.317;
layerId = m01;
shapes = (
{
closed = 1;
nodes = (
(744,40,o),
(737,47,o),
(737,57,cs),
(737,65,o),
(744,72,o),
(754,72,cs),
(763,72,o),
(770,65,o),
(770,57,cs),
(770,47,o),
(763,40,o),
(754,40,cs)
);
},
{
closed = 1;
nodes = (
(18,149,o),
(95,62,o),
(95,-16,cs),
(95,-91,o),
(25,-162,o),
(40,-162,cs),
(85,-162,o),
(186,-49,o),
(231,-30,c),
(245,-35,o),
(260,-45,o),
(277,-56,c),
(253,-82,o),
(245,-73,o),
(245,-82,cs),
(245,-111,o),
(347,-174,o),
(379,-174,cs),
(408,-174,o),
(411,-149,o),
(422,-121,c),
(470,-132,o),
(519,-134,o),
(568,-134,c),
(560,-150,o),
(542,-147,o),
(539,-154,cs),
(519,-200,o),
(519,-247,o),
(525,-247,cs),
(538,-247,o),
(592,-183,o),
(615,-132,c),
(724,-126,o),
(738,-101,o),
(753,-96,cs),
(798,-82,o),
(847,-71,o),
(847,-27,cs),
(847,2,o),
(837,8,o),
(828,22,cs),
(809,57,o),
(777,117,o),
(732,137,cs),
(714,145,o),
(692,180,o),
(631,192,c),
(644,256,o),
(605,313,o),
(562,313,cs),
(485,313,o),
(371,208,o),
(236,68,cs),
(229,60,o),
(260,67,o),
(283,52,c),
(266,43,o),
(248,37,o),
(228,37,cs),
(187,38,o),
(64,149,o),
(32,149,cs)
);
}
